<svg xmlns="http://www.w3.org/2000/svg" viewBox="0 0 69.97 48.35"><defs><style>.cls-1{fill:#db6563;}.cls-2{fill:#a53732;}.cls-3{fill:#c95d5d;}.cls-4{fill:#a3423b;}.cls-5{fill:#ba3d3a;}.cls-6{fill:#af3c3c;}.cls-7{fill:#8e3932;}.cls-8{fill:#af4e4b;}</style></defs><title>diamond_reverseРесурс 2</title><g id="Слой_2" data-name="Слой 2"><g id="Слой_1-2" data-name="Слой 1"><path class="cls-1" d="M11.66,35.35v13L0,35.35Zm11.66,0-11.66,13v-13Z"/><path class="cls-2" d="M11.66,48.35l11.66-13v13Zm23.32,0-11.66-13v13Z"/><polyline class="cls-3" points="34.98 0.37 23.32 35.37 0 35.37"/><path class="cls-4" d="M70,35.35l-11.67,13v-13Zm-23.33,0,11.66,13v-13Z"/><path class="cls-5" d="M23.25,35.37,35.05,0V35.37Zm23.46,0L35.05,0V35.37Z"/><path class="cls-6" d="M46.64,48.35v-13l11.66,13Zm0,0v-13L35,48.35Z"/><polyline class="cls-7" points="34.98 0.37 46.64 35.37 69.97 35.37"/><path class="cls-8" d="M35,35.35v13l-11.66-13Zm0,0v13l11.66-13Z"/></g></g></svg>