<?xml version="1.0" encoding="utf-8"?>
<!-- Generator: Adobe Illustrator 22.1.0, SVG Export Plug-In . SVG Version: 6.00 Build 0)  -->
<svg version="1.1" id="Слой_1" xmlns="http://www.w3.org/2000/svg" xmlns:xlink="http://www.w3.org/1999/xlink" x="0px" y="0px"
	 viewBox="0 0 253.5 48" style="enable-background:new 0 0 253.5 48;" xml:space="preserve">
<style type="text/css">
	.st0{fill:#F3D64B;}
	.st1{fill:#C45448;}
</style>
<title>klio_жолтыйРесурс 1</title>
<g id="Слой_2_1_">
	<g id="Слой_1-2">
		<path class="st0" d="M90.6,18.6c0.2,0,0.3-0.1,0.4-0.2c1.2-1,2.5-1.9,3.8-2.9c0.7-0.6,1.5-1.1,2.3-1.7l3.4-2.6l2.3-1.8
			c1.1-0.9,2.2-1.7,3.3-2.6l1.6-1.2c1.1-0.9,2.3-1.7,3.4-2.6c0.6-0.4,1.2-0.9,1.8-1.3c0.1-0.1,0.3-0.1,0.4-0.1h13
			c0.1,0,0.1,0,0.2,0.1c-0.1,0.1-0.2,0.3-0.4,0.3c-1.1,0.8-2.2,1.6-3.2,2.5l-2.5,1.8c-0.8,0.6-1.6,1.2-2.4,1.9s-1.7,1.3-2.5,1.9
			s-1.6,1.2-2.3,1.8c-1,0.8-2.1,1.6-3.2,2.4c-0.8,0.6-1.6,1.2-2.5,1.9c-0.9,0.7-1.7,1.2-2.5,1.9c-0.5,0.4-0.5,0.4-0.2,0.9
			c0.8,1.5,1.7,2.9,2.5,4.4l1.7,2.9c0.6,1.1,1.2,2.1,1.8,3.2s1.1,2,1.7,3c0.8,1.5,1.7,2.9,2.5,4.4c0.6,1.1,1.3,2.2,1.9,3.3
			c0.5,0.9,1,1.9,1.6,2.8c0.1,0.1,0,0.1-0.1,0.2h-12.6c-0.2,0-0.4-0.1-0.5-0.3c-0.6-1-1.2-1.9-1.7-2.9s-1.2-2-1.7-3
			s-1.2-2.1-1.8-3.2l-1.8-3.3c-0.6-1.1-1.2-2-1.7-3.1l-1-1.7c-0.1-0.2-0.2-0.2-0.4-0.1l-2.7,2.1l-2.6,1.8c-0.6,0.4-1.2,0.9-1.8,1.3
			c-0.2,0.1-0.3,0.4-0.3,0.6l-0.6,2.7c-0.2,0.9-0.3,1.6-0.5,2.4s-0.3,1.4-0.5,2.2s-0.2,1.3-0.4,2s-0.3,1.6-0.5,2.4
			c0,0.2-0.2,0.2-0.3,0.2H73.9c-0.6,0-0.6,0-0.5-0.5c0.2-0.7,0.4-1.5,0.5-2.2l0.6-2.7c0.2-0.9,0.3-1.8,0.5-2.6
			c0.3-1.2,0.5-2.4,0.8-3.6c0.3-1,0.4-2,0.6-3s0.5-2.2,0.7-3.2s0.5-2.3,0.8-3.5s0.5-2.2,0.8-3.4s0.5-2.3,0.7-3.4s0.5-2.2,0.7-3.3
			s0.5-2,0.7-3s0.4-1.7,0.6-2.6c0.1-0.8,0.3-1.7,0.6-2.5c0.2-0.6,0.2-1.2,0.4-1.8c0-0.2,0.2-0.2,0.3-0.2h11.4c0.3,0,0.3,0.1,0.2,0.3
			c-0.2,0.7-0.4,1.5-0.5,2.2c-0.1,0.5-0.2,1-0.3,1.6C93.4,6.6,93.2,7.3,93,8c-0.1,0.5-0.2,1.1-0.3,1.6c-0.2,1-0.4,1.9-0.7,2.9
			c-0.2,0.8-0.3,1.5-0.5,2.3S91.2,16.2,91,17C90.9,17.5,90.8,18.1,90.6,18.6C90.7,18.5,90.6,18.5,90.6,18.6z"/>
		<path class="st0" d="M183.9,28.3c0.4-0.4,0.7-0.8,1.1-1.2l2.4-2.7l3-3.4l2.4-2.7l3-3.4l2.6-2.8c0.1-0.2,0.3-0.2,0.6-0.2h10.9
			c0.2,0,0.4-0.1,0.3,0.2c-0.3,1-0.4,2-0.6,2.9s-0.5,1.9-0.7,2.9l-0.6,3c-0.2,1-0.4,1.7-0.6,2.5s-0.3,1.5-0.5,2.3
			c-0.2,0.6-0.3,1.3-0.4,1.9c-0.1,0.7-0.2,1-0.3,1.6s-0.3,1.2-0.4,1.8s-0.2,1-0.3,1.5s-0.3,1.3-0.4,1.9s-0.2,1-0.3,1.5
			s-0.2,1-0.3,1.6s-0.3,1.3-0.4,1.9l-0.7,2.9c-0.1,0.2,0,0.5-0.2,0.6c-0.3,0.1-0.5,0.1-0.8,0h-9.8c-0.4,0-0.4-0.2-0.3-0.3l0.6-2.7
			c0.2-0.9,0.4-1.7,0.6-2.5c0.2-0.6,0.2-1.3,0.4-2c0.2-0.6,0.3-1.2,0.4-1.8c0.1-0.6,0.3-1.2,0.4-1.9c0.1-0.7,0.3-1.5,0.5-2.2
			c0.2-0.6,0.3-1.3,0.4-1.9c0.1-0.3,0.1-0.6,0.2-0.9v-0.2l-0.1,0.1c-1.8,2-3.6,3.9-5.3,5.9c-1.1,1.3-2.1,2.5-3.2,3.7
			c-1.3,1.5-2.7,3-4,4.5c-0.6,0.7-1.2,1.4-1.9,2.1c-0.1,0.1-0.2,0.2-0.4,0.2h-11c-0.2,0-0.4,0-0.3-0.3c0.2-0.7,0.3-1.5,0.5-2.2
			s0.3-1.4,0.5-2.2s0.3-1.3,0.4-1.9l0.6-2.7c0.2-0.7,0.3-1.5,0.5-2.2c0.2-0.7,0.3-1.5,0.5-2.2c0.1-0.5,0.2-1.1,0.3-1.6
			s0.3-1.2,0.4-1.8s0.2-1,0.3-1.5s0.3-1.3,0.4-1.9l0.4-1.8c0.2-0.8,0.3-1.6,0.5-2.3c0.2-0.6,0.3-1.2,0.4-1.8c0.2-1,0.4-2,0.7-3
			c0.1-0.5,0.2-0.9,0.3-1.4c0-0.2,0.1-0.2,0.3-0.2h10.5c0.3,0,0.4,0.1,0.3,0.3l-0.3,1.5c-0.2,0.9-0.4,1.7-0.6,2.6
			c-0.1,0.6-0.2,1.3-0.4,1.9c-0.2,0.7-0.3,1.5-0.5,2.3s-0.3,1.5-0.5,2.2c-0.2,1-0.4,1.9-0.7,2.9c-0.2,0.6-0.3,1.3-0.4,1.9
			C184.1,27.7,183.9,28,183.9,28.3L183.9,28.3z"/>
		<path class="st0" d="M153.3,42.9h-5.2c-0.2,0-0.3,0-0.3-0.2c0.1-0.7,0.3-1.3,0.4-2c0.1-0.6,0.2-1.3,0.4-1.9
			c0.2-0.7,0.3-1.5,0.5-2.3s0.3-1.4,0.5-2.1s0.3-1.6,0.5-2.4c0.2-0.8,0.3-1.5,0.5-2.2s0.3-1.5,0.5-2.2c0.2-0.6,0.3-1.3,0.4-1.9
			c0.1-0.6,0.3-1.3,0.4-1.9c0.1-0.6,0.2-1.2,0.4-1.8c0.2-0.6,0.3-1.5,0.5-2.2c0-0.1,0-0.3,0.1-0.4c0.1-0.1,0-0.3-0.3-0.3h-7.1
			c-0.4,0-0.4,0.1-0.5,0.4c-0.2,0.9-0.4,1.8-0.6,2.6c-0.2,1.3-0.6,2.5-0.9,3.8s-0.8,2.7-1.2,4c-0.4,1.3-0.9,2.6-1.6,3.8
			c-0.5,1.1-1.2,2.1-2,2.9c-0.7,0.7-1.4,1.3-2.1,1.9c-1.1,0.8-2.3,1.5-3.5,2.1c-1.3,0.6-2.7,1.1-4.1,1.5l-2.8,0.6
			c-1.4,0.2-2.7,0.3-4.1,0.3h-0.7c-0.2,0-0.3,0-0.2-0.2c0.1-0.9,0.3-1.7,0.6-2.6c0.2-0.8,0.4-1.7,0.6-2.5l0.3-1.5
			c0-0.2,0.1-0.3,0.4-0.4c1-0.2,1.9-0.4,2.9-0.8c1.2-0.4,2.3-1.1,3.2-1.9c0.7-0.6,1.2-1.4,1.6-2.2c0.6-1.5,1.1-3.1,1.6-4.7
			c0.3-1,0.5-2.1,0.8-3.1c0.2-0.8,0.4-1.5,0.6-2.3c0.2-1,0.4-1.9,0.6-2.9s0.5-2.2,0.7-3.2c0.2-0.8,0.4-1.7,0.5-2.5
			c0-0.1,0.1-0.2,0.2-0.2h29.4c0.4,0,0.4,0,0.3,0.4s-0.2,1-0.3,1.5l-0.4,1.9c-0.1,0.5-0.2,1.1-0.4,1.6c-0.2,0.5-0.3,1.4-0.5,2.1
			s-0.2,1.1-0.4,1.6c-0.2,0.7-0.3,1.5-0.5,2.2l-0.3,1.5c-0.1,0.5-0.3,1.3-0.4,1.9s-0.3,1.3-0.4,1.9s-0.2,1-0.3,1.5
			c-0.1,0.5-0.2,1.1-0.4,1.6l-0.3,1.5c-0.1,0.5-0.2,1.1-0.4,1.6c-0.2,0.8-0.4,1.7-0.6,2.6c-0.1,0.6-0.2,1.3-0.4,1.9
			c-0.2,0.7-0.3,1.5-0.5,2.3c-0.1,0.4-0.2,0.7-0.2,1.1c0,0.2-0.1,0.3-0.4,0.3L153.3,42.9z"/>
		<path class="st1" d="M35.8,48l-2.4-2.3c-0.5-0.5-1.1-1.1-1.7-1.6L29.5,42l-1.6-1.6l-2.2-2.2c-0.5-0.5-1.1-1-1.6-1.5l-2.2-2.1
			c-0.5-0.5-1.1-1-1.7-1.6l-2.1-2.1c-0.6-0.6-1.1-1.1-1.7-1.6l-2.1-2.1c-0.4-0.3-0.7-0.7-1.1-1l-2.3-2.4l-1.7-1.6l-2.1-2.1L6,19
			c-0.8-0.7-1.6-1.5-2.3-2.2L2,15.2l-2-1.9c-0.1-0.1,0-0.2,0-0.3l2.1-2.4l2.8-3.1l2.5-2.8l2.7-3c0.5-0.5,0.9-1.1,1.4-1.6
			C11.5,0,11.7,0,11.8,0h48.4c0.2,0,0.4,0.1,0.5,0.2l3,3.5c1,1.2,2.1,2.4,3.2,3.6c0.8,0.9,1.6,1.8,2.4,2.8s1.7,2,2.5,2.9
			c0.1,0.1,0.1,0.1,0,0.2l-1.7,1.6l-2.6,2.6l-1.6,1.5c-0.8,0.7-1.5,1.5-2.3,2.2l-1.5,1.5l-2.3,2.3c-0.5,0.5-1.1,1-1.6,1.6
			c-0.7,0.7-1.5,1.4-2.2,2.1c-0.6,0.5-1.1,1.1-1.7,1.6l-2.1,2.1c-0.4,0.3-0.7,0.7-1.1,1c-0.8,0.7-1.5,1.5-2.3,2.2
			c-0.5,0.5-1.1,1-1.6,1.5l-2.3,2.2l-1.1,1l-2.3,2.2c-0.5,0.5-1.1,1-1.7,1.6s-1.4,1.4-2.2,2.1L35.8,48z"/>
		<path class="st0" d="M253.4,23.1c-0.1-0.9-0.2-1.8-0.5-2.7c-0.4-1.3-1-2.4-1.8-3.5c-0.8-1.1-1.9-2.1-3-2.9
			c-0.9-0.6-1.9-1.1-2.9-1.5c-1.4-0.5-2.9-0.9-4.4-1.1c-1.3-0.2-2.6-0.2-3.9-0.3h-1c-1,0-2.1,0.1-3.1,0.3c-1,0.1-2.1,0.3-3.1,0.6
			c-1.4,0.4-2.8,0.9-4.1,1.5c-1.2,0.5-2.3,1.2-3.3,2c-1.4,1.1-2.7,2.4-3.9,3.8c-1.1,1.5-2.1,3.1-2.8,4.8c-0.4,1-0.7,2-0.9,3.1
			c-0.2,0.9-0.3,1.9-0.4,2.8v1.6c0,0.6,0.1,1.3,0.2,1.9c0.2,1,0.5,1.9,1,2.8c0.7,1.3,1.7,2.4,2.8,3.4c0.6,0.5,1.2,0.9,1.8,1.3
			c1,0.7,2.1,1.2,3.3,1.6c0.9,0.3,1.8,0.5,2.7,0.7c1.3,0.2,2.6,0.4,3.9,0.4c0.8,0,1.5,0,2.3-0.1c1-0.1,1.9-0.2,2.9-0.3
			c1-0.1,2-0.4,3-0.6c1.4-0.4,2.8-0.9,4.1-1.6c1.5-0.8,3-1.8,4.3-2.9c1.2-1,2.2-2.2,3.1-3.4c1.6-2.2,2.7-4.7,3.3-7.3
			c0.2-1,0.3-1.9,0.4-2.9C253.5,24.1,253.5,23.6,253.4,23.1z M241.8,25c-0.1,0.9-0.2,1.8-0.3,2.7c-0.2,0.9-0.5,1.8-0.8,2.7
			c-0.5,1.3-1.3,2.4-2.2,3.4c-1.4,1.6-3.4,2.6-5.5,2.7c-0.4,0-0.7,0-1.1,0.1c-1.1,0-2.2-0.2-3.2-0.7c-1-0.6-1.8-1.5-2.2-2.6
			c-0.2-0.6-0.3-1.3-0.4-1.9V30c0-1.3,0.2-2.6,0.6-3.8c0.4-1.2,0.9-2.4,1.5-3.5c0.9-1.5,2.2-2.8,3.8-3.6c0.8-0.4,1.7-0.7,2.6-0.8
			c0.6-0.1,1.1-0.1,1.7-0.1c2.5,0.1,4.4,1,5.2,3.2c0.2,0.6,0.3,1.2,0.4,1.8C242,23.8,241.9,24.4,241.8,25z"/>
	</g>
</g>
</svg>
