<svg xmlns="http://www.w3.org/2000/svg" viewBox="0 0 609.26 480.24"><defs><style>.cls-1{fill:#cecece;}.cls-2{fill:#9b9b9b;}.cls-3{fill:#c4c4c4;}.cls-4{fill:#9e9e9e;}.cls-5{fill:#afafaf;}.cls-6{fill:#8e8e8e;}.cls-7{fill:#848484;}.cls-8{fill:#a0a0a0;}</style></defs><title>brokenlogoРесурс 1</title><g id="Слой_2" data-name="Слой 2"><g id="Слой_1-2" data-name="Слой 1"><path class="cls-1" d="M0,156.74,96.31,49.36V156.74Zm96.31,0V49.36l96.31,107.38Z"/><path class="cls-2" d="M213.26,19.15l21.35,105.23L118.88,38.3Zm0,0,21.35,105.23L307.65,0Z"/><polyline class="cls-3" points="307.65 480.24 211.34 191.15 18.72 191.15"/><path class="cls-4" d="M512.87,166V58.58L609.26,166Zm0,0V58.58L416.56,166Z"/><path class="cls-5" d="M320.83,166v292L223.36,166Zm0,0v292l96.31-292Z"/><path class="cls-6" d="M512.87,58.58,416.56,166V58.58Zm-192.62,0L416.56,166V58.58Z"/><polyline class="cls-7" points="320.25 454.89 416.56 165.79 609.26 165.79"/><path class="cls-8" d="M223.94,166,320.25,58.58V166Zm192.62,0L320.25,58.58V166Z"/></g></g></svg>