<?xml version="1.0" encoding="UTF-8" standalone="no"?>
<!DOCTYPE svg PUBLIC "-//W3C//DTD SVG 1.1//EN" "http://www.w3.org/Graphics/SVG/1.1/DTD/svg11.dtd">
<svg version="1.1" xmlns="http://www.w3.org/2000/svg" xmlns:xlink="http://www.w3.org/1999/xlink" preserveAspectRatio="xMidYMid meet" viewBox="-1.00017413044944 12.122999749147354 449.99945783621496 423.754098535971" width="446" height="419.75"><defs><path d="M432.3 87.07C404.64 85.88 183.31 76.34 155.64 75.15C147.71 74.8 141.07 80.93 140.73 88.83C140.4 96.73 146.51 103.4 154.41 103.74C171.61 104.48 257.59 108.19 412.34 114.86L361.63 273.09L135.94 273.09C111.48 139.88 97.89 65.88 95.17 51.08C94.28 46.22 90.94 42.16 86.33 40.35C79.65 37.73 26.23 16.74 19.55 14.11C12.19 11.23 3.88 14.85 0.99 22.2C-1.89 29.55 1.72 37.86 9.08 40.75C13.04 42.31 32.83 50.08 68.46 64.08C93.35 199.62 107.18 274.92 109.95 289.98C111.2 296.77 117.12 301.71 124.02 301.71C124.48 301.71 126.78 301.71 130.91 301.71C121.48 327.9 116.24 342.45 115.19 345.36C113.88 349.02 114.42 353.08 116.66 356.26C118.89 359.44 122.53 361.33 126.41 361.33C127.51 361.33 136.33 361.33 137.43 361.33C130.6 368.93 126.41 378.94 126.41 389.95C126.41 413.62 145.67 432.88 169.34 432.88C193.01 432.88 212.27 413.62 212.27 389.95C212.27 378.94 208.08 368.93 201.25 361.33C210.61 361.33 285.48 361.33 294.84 361.33C288.01 368.93 283.82 378.94 283.82 389.95C283.82 413.62 303.08 432.88 326.75 432.88C350.42 432.88 369.68 413.62 369.68 389.95C369.68 378.94 365.49 368.93 358.66 361.33C360 361.33 370.72 361.33 372.06 361.33C378.65 361.33 383.99 355.99 383.99 349.4C383.99 342.82 378.65 337.48 372.06 337.48C356.82 337.48 280.59 337.48 143.38 337.48L156.25 301.7C285.74 301.7 357.68 301.7 372.06 301.7C378.29 301.7 383.79 297.68 385.69 291.76C391.65 273.16 439.35 124.33 445.31 105.73C446.68 101.48 445.98 96.84 443.43 93.18C440.87 89.52 436.76 87.26 432.3 87.07ZM150.26 389.95C150.26 379.43 158.82 370.87 169.34 370.87C179.86 370.87 188.42 379.43 188.42 389.95C188.42 400.48 179.86 409.03 169.34 409.03C158.82 409.03 150.26 400.48 150.26 389.95ZM307.67 389.95C307.67 379.43 316.23 370.87 326.75 370.87C337.27 370.87 345.83 379.43 345.83 389.95C345.83 400.48 337.27 409.03 326.75 409.03C316.23 409.03 307.67 400.48 307.67 389.95Z" id="iWn0nkhcf"></path></defs><g><g><use xlink:href="#iWn0nkhcf" opacity="1" fill="#c45448" fill-opacity="1"></use><g><use xlink:href="#iWn0nkhcf" opacity="1" fill-opacity="0" stroke="#000000" stroke-width="1" stroke-opacity="0"></use></g></g></g></svg>