<?xml version="1.0" encoding="utf-8"?>
<!-- Generator: Adobe Illustrator 17.0.0, SVG Export Plug-In . SVG Version: 6.00 Build 0)  -->
<!DOCTYPE svg PUBLIC "-//W3C//DTD SVG 1.1//EN" "http://www.w3.org/Graphics/SVG/1.1/DTD/svg11.dtd">
<svg version="1.1" id="Layer_1" xmlns="http://www.w3.org/2000/svg" xmlns:xlink="http://www.w3.org/1999/xlink" x="0px" y="0px"
	 width="290px" height="290px" viewBox="0 0 290 290" enable-background="new 0 0 290 290" xml:space="preserve">
<path d="M163.506,142.5L277.35,28.656c3.905-3.905,3.905-10.237,0-14.142l-6.364-6.364c-3.905-3.905-10.237-3.905-14.142,0
	L143,121.994L29.156,8.15c-3.905-3.905-10.237-3.905-14.142,0L8.65,14.514c-3.905,3.905-3.905,10.237,0,14.142L122.494,142.5
	L8.65,256.344c-3.905,3.905-3.905,10.237,0,14.142l6.364,6.364c3.905,3.905,10.237,3.905,14.142,0L143,163.006L256.844,276.85
	c3.905,3.905,10.237,3.905,14.142,0l6.364-6.364c3.905-3.905,3.905-10.237,0-14.142L163.506,142.5z"/>
</svg>
