<?xml version="1.0" encoding="utf-8"?>
<!-- Generator: Adobe Illustrator 17.0.0, SVG Export Plug-In . SVG Version: 6.00 Build 0)  -->
<!DOCTYPE svg PUBLIC "-//W3C//DTD SVG 1.1//EN" "http://www.w3.org/Graphics/SVG/1.1/DTD/svg11.dtd">
<svg version="1.1" id="Capa_1" xmlns="http://www.w3.org/2000/svg" xmlns:xlink="http://www.w3.org/1999/xlink" x="0px" y="0px"
	 width="453.5px" height="376px" viewBox="0 39.5 453.5 376" enable-background="new 0 39.5 453.5 376" xml:space="preserve">
<g>
	<path stroke="#FFFFFF" stroke-miterlimit="10" d="M148,160c0-8.832-7.168-16-16-16H36c-8.832,0-16,7.168-16,16s7.168,16,16,16h96
		C140.832,176,148,168.832,148,160z"/>
	<path stroke="#FFFFFF" stroke-miterlimit="10" d="M132,208H68c-8.832,0-16,7.168-16,16s7.168,16,16,16h64c8.832,0,16-7.168,16-16
		S140.832,208,132,208z"/>
	<path stroke="#FFFFFF" stroke-miterlimit="10" d="M132,272h-32c-8.832,0-16,7.168-16,16s7.168,16,16,16h32c8.832,0,16-7.168,16-16
		S140.832,272,132,272z"/>
</g>
<g>
	<path stroke="#FFFFFF" stroke-miterlimit="10" d="M424.684,347.167H200.65c-9.457,0-17.15-7.693-17.15-17.15V105.983
		c0-9.457,7.694-17.15,17.15-17.15h224.033c9.456,0,17.149,7.693,17.149,17.15v224.033
		C441.833,339.474,434.14,347.167,424.684,347.167z M207.5,323.167h210.333V112.833H207.5V323.167z"/>
</g>
</svg>
