<?xml version="1.0" encoding="UTF-8" standalone="no"?>
<!DOCTYPE svg PUBLIC "-//W3C//DTD SVG 1.1//EN" "http://www.w3.org/Graphics/SVG/1.1/DTD/svg11.dtd">
<svg version="1.1" xmlns="http://www.w3.org/2000/svg" xmlns:xlink="http://www.w3.org/1999/xlink" preserveAspectRatio="xMidYMid meet" viewBox="18.97794928335171 48.48588533627343 425.36691520211355 262.04917750826905" width="421.37" height="258.05"><defs><path d="M131.85 104.59C122.27 104.59 45.55 104.59 35.96 104.59C27.14 104.59 19.98 111.75 19.98 120.57C19.98 129.4 27.14 136.56 35.96 136.56C45.55 136.56 122.27 136.56 131.85 136.56C140.68 136.56 147.84 129.4 147.84 120.57C147.84 111.75 140.68 104.59 131.85 104.59Z" id="av3gka7EU"></path><path d="M67.93 168.52C59.1 168.52 51.94 175.68 51.94 184.5C51.94 193.33 59.1 200.49 67.93 200.49C74.32 200.49 125.46 200.49 131.85 200.49C140.68 200.49 147.84 193.33 147.84 184.5C147.84 175.68 140.68 168.52 131.85 168.52C119.07 168.52 74.32 168.52 67.93 168.52Z" id="a1AMLR4hHo"></path><path d="M99.89 232.45C91.07 232.45 83.91 239.61 83.91 248.43C83.91 257.26 91.07 264.42 99.89 264.42C103.09 264.42 128.66 264.42 131.85 264.42C140.68 264.42 147.84 257.26 147.84 248.43C147.84 239.61 140.68 232.45 131.85 232.45C125.46 232.45 103.09 232.45 99.89 232.45Z" id="eepnRuBPM"></path><path d="M200.43 307.54C190.98 307.54 183.3 299.85 183.3 290.4C183.3 268.03 183.3 89 183.3 66.62C183.3 57.17 190.98 49.49 200.43 49.49C222.81 49.49 401.84 49.49 424.21 49.49C433.66 49.49 441.34 57.17 441.34 66.62C441.34 89 441.34 268.02 441.34 290.4C441.35 299.85 433.66 307.54 424.22 307.54C379.46 307.54 222.81 307.54 200.43 307.54ZM417.37 283.56L417.37 73.46L207.27 73.46L207.27 283.56L417.37 283.56Z" id="b3W79Em3yQ"></path></defs><g><g><use xlink:href="#av3gka7EU" opacity="1" fill="#f3d64b" fill-opacity="1"></use><g><use xlink:href="#av3gka7EU" opacity="1" fill-opacity="0" stroke="#ffffff" stroke-width="1" stroke-opacity="1"></use></g></g><g><use xlink:href="#a1AMLR4hHo" opacity="1" fill="#f3d64b" fill-opacity="1"></use><g><use xlink:href="#a1AMLR4hHo" opacity="1" fill-opacity="0" stroke="#ffffff" stroke-width="1" stroke-opacity="1"></use></g></g><g><use xlink:href="#eepnRuBPM" opacity="1" fill="#f3d64b" fill-opacity="1"></use><g><use xlink:href="#eepnRuBPM" opacity="1" fill-opacity="0" stroke="#ffffff" stroke-width="1" stroke-opacity="1"></use></g></g><g><use xlink:href="#b3W79Em3yQ" opacity="1" fill="#f3d64b" fill-opacity="1"></use><g><use xlink:href="#b3W79Em3yQ" opacity="1" fill-opacity="0" stroke="#ffffff" stroke-width="1" stroke-opacity="1"></use></g></g></g></svg>