<svg xmlns="http://www.w3.org/2000/svg" viewBox="0 0 69.97 48.35"><defs><style>.cls-1{fill:#db6563;}.cls-2{fill:#a53732;}.cls-3{fill:#c95d5d;}.cls-4{fill:#a3423b;}.cls-5{fill:#ba3d3a;}.cls-6{fill:#af3c3c;}.cls-7{fill:#8e3932;}.cls-8{fill:#af4e4b;}</style></defs><title>diamondРесурс 1</title><g id="Слой_2" data-name="Слой 2"><g id="Слой_1-2" data-name="Слой 1"><path class="cls-1" d="M0,13,11.66,0V13Zm11.66,0V0L23.32,13Z"/><path class="cls-2" d="M23.32,0V13L11.66,0Zm0,0V13L35,0Z"/><polyline class="cls-3" points="34.98 47.98 23.32 12.98 0 12.98"/><path class="cls-4" d="M58.3,13V0L70,13Zm0,0V0L46.64,13Z"/><path class="cls-5" d="M35.05,13V48.35L23.25,13Zm0,0V48.35L46.71,13Z"/><path class="cls-6" d="M58.3,0,46.64,13V0ZM35,0,46.64,13V0Z"/><polyline class="cls-7" points="34.98 47.98 46.64 12.98 69.97 12.98"/><path class="cls-8" d="M23.32,13,35,0V13Zm23.32,0L35,0V13Z"/></g></g></svg>