<?xml version="1.0" encoding="utf-8"?>
<!-- Generator: Adobe Illustrator 17.0.0, SVG Export Plug-In . SVG Version: 6.00 Build 0)  -->
<!DOCTYPE svg PUBLIC "-//W3C//DTD SVG 1.1//EN" "http://www.w3.org/Graphics/SVG/1.1/DTD/svg11.dtd">
<svg version="1.1" xmlns="http://www.w3.org/2000/svg" xmlns:xlink="http://www.w3.org/1999/xlink" x="0px" y="0px" width="612px"
	 height="792px" viewBox="0 0 612 792" enable-background="new 0 0 612 792" xml:space="preserve">
<g id="Layer_2">
	<path fill="#1977F3" d="M353.244,241.464h-90.489c-82.62,0-102.291,19.671-102.291,102.291v90.489
		c0,82.62,19.671,102.291,102.291,102.291h90.489c82.62,0,102.291-19.671,102.291-102.291v-90.489
		C455.536,261.136,435.864,241.464,353.244,241.464z"/>
</g>
<g id="Layer_1">
	<path fill="#1977F3" d="M448.176,396.052c0-78.487-63.637-142.124-142.124-142.124s-142.124,63.637-142.124,142.124
		c0,70.932,51.965,129.732,119.919,140.406v-99.313h-36.096v-41.093h36.096v-31.319c0-35.616,21.225-55.303,53.683-55.303
		c15.549,0,31.819,2.778,31.819,2.778v34.977h-17.928c-17.647,0-23.164,10.953-23.164,22.205v26.661h39.413l-6.296,41.092h-33.118
		v99.313c67.954-10.654,119.919-69.454,119.919-140.406L448.176,396.052z"/>
	<path fill="#FEFEFE" d="M361.375,437.144l6.296-41.093h-39.413V369.39c0-11.232,5.496-22.205,23.164-22.205h17.928v-34.977
		c0,0-16.268-2.778-31.819-2.778c-32.458,0-53.683,19.667-53.683,55.303v31.319h-36.096v41.093h36.096v99.313
		c7.235,1.138,14.65,1.718,22.205,1.718c7.555,0,14.97-0.6,22.205-1.718v-99.313h33.118L361.375,437.144z"/>
</g>
</svg>
