<?xml version="1.0" encoding="utf-8"?>
<!-- Generator: Adobe Illustrator 17.0.0, SVG Export Plug-In . SVG Version: 6.00 Build 0)  -->
<!DOCTYPE svg PUBLIC "-//W3C//DTD SVG 1.1//EN" "http://www.w3.org/Graphics/SVG/1.1/DTD/svg11.dtd">
<svg version="1.1" id="Capa_1" xmlns="http://www.w3.org/2000/svg" xmlns:xlink="http://www.w3.org/1999/xlink" x="0px" y="0px"
	 width="612px" height="792px" viewBox="0 0 612 792" enable-background="new 0 0 612 792" xml:space="preserve">
<g>
	<g>
		<path d="M604.286,658.165L428.695,482.448c34.617-41.515,55.437-94.569,55.437-152.514c0-132.195-108.491-239.683-241.94-239.683
			S0,197.864,0,330.059s108.491,239.683,241.94,239.683c56.691,0,108.867-19.441,150.256-51.925l176.219,176.219
			c10.285,10.285,25.586,10.285,35.871,0C614.571,683.751,614.571,668.449,604.286,658.165z M51.423,330.059
			c0-103.85,85.538-188.259,190.517-188.259s190.517,84.409,190.517,188.259S346.919,518.318,241.94,518.318
			S51.423,433.784,51.423,330.059z"/>
	</g>
</g>
</svg>
