<?xml version="1.0" encoding="utf-8"?>
<!-- Generator: Adobe Illustrator 17.0.0, SVG Export Plug-In . SVG Version: 6.00 Build 0)  -->
<!DOCTYPE svg PUBLIC "-//W3C//DTD SVG 1.1//EN" "http://www.w3.org/Graphics/SVG/1.1/DTD/svg11.dtd">
<svg version="1.1" id="Слой_1" xmlns="http://www.w3.org/2000/svg" xmlns:xlink="http://www.w3.org/1999/xlink" x="0px" y="0px"
	 width="1600px" height="326.901px" viewBox="0 0 1600 326.901" enable-background="new 0 0 1600 326.901" xml:space="preserve">
<title>KLIO_LOGO_RED_F</title>
<path fill="#C45448" d="M571.879,131.307c0.989-0.019,1.916-0.483,2.525-1.262c7.575-6.312,15.78-11.993,23.986-18.305
	c4.418-3.787,9.468-6.943,14.518-10.731l21.462-16.412l14.518-11.362c6.943-5.681,13.887-10.731,20.83-16.412l10.099-7.575
	c6.943-5.681,14.518-10.731,21.461-16.412c3.787-2.525,7.575-5.681,11.362-8.206c0.741-0.502,1.635-0.726,2.525-0.631h82.058
	c0.631,0,0.631,0,1.262,0.631c-0.631,0.631-1.262,1.894-2.525,1.894c-7.001,4.907-13.743,10.175-20.199,15.78l-15.78,11.362
	c-5.05,3.787-10.099,7.575-15.149,11.993c-5.05,4.419-10.731,8.206-15.78,11.993c-5.05,3.787-10.099,7.575-14.518,11.362
	c-6.312,5.05-13.255,10.099-20.199,15.149c-5.05,3.787-10.099,7.575-15.78,11.993c-5.681,4.419-10.731,7.575-15.78,11.993
	c-3.156,2.525-3.156,2.525-1.262,5.681c5.05,9.468,10.731,18.305,15.78,27.773l10.731,18.305
	c3.787,6.943,7.575,13.255,11.362,20.199c3.787,6.943,6.943,12.624,10.731,18.936c5.05,9.468,10.731,18.305,15.78,27.773
	c3.787,6.943,8.206,13.887,11.993,20.83c3.156,5.681,6.312,11.993,10.099,17.674c0.631,0.631,0,0.631-0.631,1.262h-79.533
	c-1.328,0.024-2.553-0.711-3.156-1.894c-3.787-6.312-7.575-11.993-10.731-18.305s-7.575-12.624-10.731-18.936
	s-7.575-13.255-11.362-20.199l-11.362-20.83c-3.787-6.943-7.575-12.624-10.731-19.568l-6.312-10.731
	c-0.631-1.262-1.262-1.262-2.525-0.631l-17.043,13.255l-16.412,11.362c-3.787,2.525-7.575,5.681-11.362,8.206
	c-1.225,0.866-1.936,2.287-1.894,3.787l-3.787,17.043c-1.262,5.681-1.894,10.099-3.156,15.149s-1.894,8.837-3.156,13.887
	c-1.262,5.05-1.262,8.206-2.525,12.624c-1.262,4.419-1.894,10.099-3.156,15.149c0,1.262-1.262,1.262-1.894,1.262h-70.065
	c-3.787,0-3.787,0-3.156-3.156c1.419-4.538,2.474-9.181,3.156-13.887l3.787-17.043c1.262-5.681,1.894-11.362,3.156-16.412
	c1.894-7.575,3.156-15.149,5.05-22.724c1.894-6.312,2.525-12.624,3.787-18.936s3.156-13.887,4.418-20.199
	c1.262-6.312,3.156-14.518,5.05-22.092c1.894-7.575,3.156-13.887,5.05-21.461c1.894-7.575,3.156-14.518,4.418-21.461
	s3.156-13.887,4.418-20.83s3.156-12.624,4.418-18.936c1.262-6.312,2.525-10.731,3.787-16.412c0.891-5.342,2.156-10.616,3.787-15.78
	c1.262-3.787,1.262-7.575,2.525-11.362c0-1.262,1.262-1.262,1.894-1.262h71.958c1.894,0,1.894,0.631,1.262,1.894
	c-1.351,4.556-2.405,9.194-3.156,13.887c-0.631,3.156-1.262,6.312-1.894,10.099c-0.823,4.47-1.877,8.894-3.156,13.255
	c-0.631,3.156-1.262,6.943-1.894,10.099c-1.101,6.185-2.577,12.298-4.418,18.305c-1.262,5.05-1.894,9.468-3.156,14.518
	s-1.894,8.837-3.156,13.887c-0.631,3.156-1.262,6.943-1.894,10.099C572.511,130.676,571.879,130.676,571.879,131.307z"/>
<path fill="#C45448" d="M1160.802,192.535c2.525-2.525,4.418-5.05,6.943-7.575l15.149-17.043l18.936-21.461l15.149-17.043
	l18.936-21.461l16.412-17.674c0.631-1.262,1.894-1.262,3.787-1.262h68.802c1.262,0,2.525-0.631,1.894,1.262
	c-1.894,6.312-2.525,12.624-3.787,18.305c-1.263,5.681-3.156,11.993-4.418,18.305l-3.787,18.936
	c-1.262,6.312-2.525,10.731-3.787,15.78c-1.262,5.05-1.894,9.468-3.156,14.518c-1.08,3.944-1.923,7.949-2.525,11.993
	c-0.631,4.418-1.262,6.312-1.894,10.099c-0.631,3.787-1.894,7.575-2.525,11.362s-1.262,6.312-1.894,9.468
	c-0.631,3.156-1.894,8.206-2.525,11.993s-1.262,6.312-1.894,9.468s-1.262,6.312-1.894,10.099c-0.631,3.787-1.894,8.206-2.525,11.993
	l-4.418,18.305c-0.631,1.262,0,3.156-1.262,3.787c-1.624,0.634-3.426,0.634-5.05,0h-61.859c-2.525,0-2.525-1.262-1.894-1.894
	l3.787-17.043c1.262-5.681,2.525-10.731,3.787-15.78c1.262-3.787,1.262-8.206,2.525-12.624c1.075-3.732,1.918-7.526,2.525-11.362
	c0.631-3.787,1.894-7.575,2.525-11.993c0.819-4.679,1.872-9.313,3.156-13.887c1.143-3.928,1.987-7.937,2.525-11.993
	c0.631-1.894,0.631-3.787,1.262-5.681v-1.262l-0.631,0.631c-11.362,12.624-22.724,24.617-33.454,37.242
	c-6.943,8.206-13.255,15.78-20.199,23.355c-8.206,9.468-17.043,18.936-25.249,28.405c-3.787,4.419-7.574,8.837-11.993,13.255
	c-0.609,0.78-1.536,1.243-2.525,1.262h-69.433c-1.262,0-2.525,0-1.894-1.894c1.262-4.418,1.894-9.468,3.156-13.887
	s1.894-8.837,3.156-13.887c1.262-5.05,1.894-8.206,2.525-11.993l3.787-17.043c1.262-4.419,1.894-9.468,3.156-13.887
	s1.894-9.468,3.156-13.887c0.631-3.156,1.262-6.943,1.894-10.099s1.894-7.575,2.525-11.362s1.262-6.312,1.894-9.468
	c0.631-3.156,1.894-8.206,2.525-11.993l2.525-11.362c1.262-5.05,1.894-10.099,3.156-14.518c1.141-3.714,1.985-7.514,2.525-11.362
	c1.262-6.312,2.525-12.624,4.418-18.936c0.631-3.156,1.262-5.681,1.894-8.837c0-1.262,0.631-1.262,1.894-1.262h66.277
	c1.894,0,2.525,0.631,1.894,1.894l-1.894,9.468c-1.262,5.681-2.525,10.731-3.787,16.412c-0.602,4.044-1.445,8.049-2.525,11.993
	c-1.262,4.419-1.894,9.468-3.156,14.518s-1.894,9.468-3.156,13.887c-1.101,6.186-2.577,12.299-4.418,18.305
	c-1.143,3.928-1.987,7.937-2.525,11.993C1161.697,188.973,1160.713,190.696,1160.802,192.535L1160.802,192.535z"/>
<path fill="#C45448" d="M967.65,284.692h-32.823c-1.262,0-1.894,0-1.894-1.262c0.631-4.418,1.894-8.206,2.525-12.624
	c0.538-4.056,1.382-8.065,2.525-11.993c1.262-4.419,1.894-9.468,3.156-14.518s1.894-8.837,3.156-13.255
	c1.262-4.419,1.894-10.099,3.156-15.149s1.894-9.468,3.156-13.887s1.894-9.468,3.156-13.887c1.08-3.944,1.923-7.949,2.525-11.993
	c0.631-3.787,1.894-8.206,2.525-11.993c0.54-3.848,1.384-7.647,2.525-11.362c1.262-3.787,1.894-9.468,3.156-13.887
	c-0.094-0.89,0.129-1.784,0.631-2.525c0.631-0.631,0-1.894-1.894-1.894h-44.816c-2.525,0-2.525,0.631-3.156,2.525
	c-1.262,5.681-2.525,11.362-3.787,16.412c-1.262,8.206-3.787,15.78-5.681,23.986c-1.894,8.206-5.05,17.043-7.575,25.249
	c-2.553,8.314-5.937,16.35-10.099,23.986c-3.092,6.801-7.366,12.999-12.624,18.305c-4.114,4.322-8.545,8.331-13.255,11.993
	c-6.9,5.15-14.302,9.591-22.092,13.255c-8.373,3.81-17.025,6.975-25.88,9.468l-17.674,3.787c-8.569,1.258-17.219,1.891-25.88,1.894
	h-4.418c-1.262,0-1.894,0-1.262-1.262c0.892-5.549,2.157-11.032,3.787-16.412c1.56-5.184,2.824-10.453,3.787-15.78l1.894-9.468
	c0-1.262,0.631-1.894,2.525-2.525c6.268-1.011,12.406-2.704,18.305-5.05c7.466-2.608,14.334-6.686,20.199-11.993
	c4.253-3.914,7.686-8.634,10.099-13.887c3.787-9.468,6.943-19.568,10.099-29.667c1.894-6.312,3.156-13.255,5.05-19.568
	c1.557-4.758,2.822-9.606,3.787-14.518c1.262-6.312,2.525-11.993,3.787-18.305s3.156-13.887,4.418-20.199
	c1.355-5.195,2.408-10.464,3.156-15.78c0.059-0.671,0.591-1.204,1.262-1.262h185.577c2.525,0,2.525,0,1.894,2.525
	s-1.262,6.312-1.894,9.468l-2.525,11.993c-0.543,3.434-1.388,6.814-2.525,10.099c-1.262,3.156-1.894,8.837-3.156,13.255
	c-1.262,4.419-1.262,6.943-2.525,10.099c-1.262,4.418-1.894,9.468-3.156,13.887l-1.894,9.468c-0.631,3.156-1.894,8.206-2.525,11.993
	s-1.894,8.206-2.525,11.993s-1.262,6.312-1.894,9.468c-0.617,3.419-1.461,6.792-2.525,10.099l-1.894,9.468
	c-0.617,3.419-1.461,6.792-2.525,10.099c-1.262,5.05-2.525,10.731-3.787,16.412c-0.602,4.044-1.445,8.049-2.525,11.993
	c-1.262,4.419-1.894,9.468-3.156,14.518c-0.671,2.262-1.094,4.59-1.262,6.943c0,1.262-0.631,1.894-2.525,1.894L967.65,284.692z"/>
<path fill="#C45448" d="M1599.495,159.711c-0.439-5.778-1.497-11.491-3.156-17.043c-2.505-7.956-6.347-15.427-11.362-22.092
	c-5.345-7.029-11.73-13.202-18.936-18.305c-5.761-3.775-11.895-6.947-18.305-9.468c-8.991-3.273-18.299-5.6-27.773-6.943
	c-8.206-1.262-16.411-1.262-24.617-1.894h-6.312c-6.57-0.026-13.125,0.608-19.568,1.894c-6.626,0.653-13.177,1.921-19.568,3.787
	c-8.855,2.493-17.507,5.658-25.88,9.468c-7.498,3.215-14.51,7.465-20.83,12.624c-8.966,7.177-17.21,15.21-24.617,23.986
	c-7.087,9.353-13.021,19.526-17.674,30.298c-2.555,6.312-4.459,12.869-5.681,19.568c-1.15,5.843-1.993,11.743-2.525,17.674v10.099
	c0.108,4.024,0.53,8.034,1.262,11.993c1.151,6.189,3.282,12.156,6.312,17.674c4.628,8.107,10.605,15.365,17.674,21.461
	c3.635,2.941,7.427,5.68,11.362,8.206c6.415,4.363,13.432,7.765,20.83,10.099c5.6,1.768,11.289,3.242,17.043,4.419
	c8.13,1.465,16.359,2.309,24.617,2.525c4.848,0.105,9.697-0.106,14.518-0.631c6.13-0.318,12.24-0.951,18.305-1.894
	c6.312-0.631,12.624-2.525,18.936-3.787c8.964-2.428,17.641-5.814,25.88-10.099c9.749-4.99,18.863-11.136,27.142-18.305
	c7.332-6.372,13.899-13.574,19.568-21.461c10.194-13.672,17.301-29.393,20.83-46.079c1.151-6.055,1.993-12.165,2.525-18.305
	C1600.128,166.055,1600.127,162.836,1599.495,159.711z M1526.274,171.704c-0.319,5.711-0.951,11.401-1.894,17.043
	c-1.305,5.786-2.992,11.48-5.05,17.043c-3.267,7.948-7.975,15.224-13.887,21.461c-8.795,10.137-21.317,16.285-34.717,17.043
	c-2.332-0.104-4.668,0.109-6.943,0.631c-6.985,0.119-13.901-1.394-20.199-4.419c-6.373-3.718-11.275-9.511-13.887-16.412
	c-1.206-3.912-2.051-7.927-2.525-11.993v-8.837c0.285-8.119,1.557-16.174,3.787-23.986c2.23-7.727,5.41-15.148,9.468-22.092
	c5.685-9.691,14.002-17.57,23.986-22.724c5.135-2.624,10.689-4.333,16.412-5.05c3.553-0.507,7.142-0.718,10.731-0.631
	c15.78,0.631,27.773,6.312,32.823,20.199c1.141,3.715,1.985,7.514,2.525,11.362C1527.01,164.141,1526.799,167.941,1526.274,171.704z
	"/>
<path d="M73.599,13.901"/>
<path fill="#DB6563" d="M0,95.959l73.599-82.058v82.058H0z M73.599,95.959V13.901l73.599,82.058H73.599z"/>
<path fill="#A53732" d="M147.199,13.901v82.058L73.6,13.901H147.199z M147.199,13.901v82.058l73.6-82.058H147.199z"/>
<polyline fill="#C95D5D" points="220.798,316.757 147.199,95.833 0,95.833 "/>
<path d="M367.997,13.901"/>
<path fill="#A3423B" d="M367.997,95.959V13.901l73.663,82.058H367.997z M367.997,95.959V13.901l-73.599,82.058H367.997z"/>
<path fill="#BA3D3A" d="M221.24,95.959v223.134L146.757,95.959L221.24,95.959L221.24,95.959z M221.24,95.959v223.134l73.599-223.134
	L221.24,95.959L221.24,95.959z"/>
<path fill="#A53732" d="M367.997,13.901l-73.599,82.058V13.901H367.997z M220.799,13.901l73.6,82.058V13.901H220.799z"/>
<polyline fill="#8E3932" points="220.798,316.757 294.398,95.833 441.66,95.833 "/>
<path fill="#AF4E4B" d="M147.199,95.959l73.6-82.058v82.058H147.199z M294.398,95.959l-73.599-82.058v82.058H294.398z"/>
</svg>
