<?xml version="1.0"?>
<svg xmlns="http://www.w3.org/2000/svg" xmlns:xlink="http://www.w3.org/1999/xlink" version="1.1" id="Capa_1" x="0px" y="0px" viewBox="0 0 468.293 468.293" style="enable-background:new 0 0 468.293 468.293;" xml:space="preserve" width="512px" height="512px" class=""><g><path style="fill:#CA7268" d="M468.293,365.837H0V178.52L224.941,23.547c6.433-4.432,14.94-4.406,21.346,0.064L468.293,178.52  V365.837z" data-original="#CE412D" class="" data-old_color="#CE412D"/><path style="fill:#B64337" d="M449.561,448.052h6.244c6.897,0,12.488-5.591,12.488-12.488v-6.244  C468.293,439.665,459.906,448.052,449.561,448.052z" data-original="#D15241" class="" data-old_color="#D15241"/><path style="fill:#F5F5F5" d="M386.812,346.41H81.481V79.233c0-10.345,8.386-18.732,18.732-18.732H368.08  c10.345,0,18.732,8.386,18.732,18.732V346.41z" data-original="#D5D6DB" class="active-path" data-old_color="#D5D6DB"/><path style="fill:#C45448" d="M449.561,448.052H18.732C8.386,448.052,0,439.665,0,429.32v-250.8l468.293,250.8  C468.293,439.665,459.906,448.052,449.561,448.052z" data-original="#E56353" class="" data-old_color="#E56353"/><path style="fill:#B64337" d="M2.976,439.383c3.328,5.2,9.123,8.669,15.756,8.669h430.829c10.345,0,18.732-8.386,18.732-18.732  v-250.8L2.976,439.383z" data-original="#D15241" class="" data-old_color="#D15241"/><g>
	<path style="fill:#64798A" d="M321.561,108.652H146.732c-3.448,0-6.244-2.795-6.244-6.244v0c0-3.448,2.795-6.244,6.244-6.244   h174.829c3.448,0,6.244,2.795,6.244,6.244v0C327.805,105.856,325.009,108.652,321.561,108.652z" data-original="#64798A" class=""/>
	<path style="fill:#64798A" d="M297.752,149.332H170.54c-3.448,0-6.244-2.795-6.244-6.244v0c0-3.448,2.796-6.244,6.244-6.244   h127.212c3.448,0,6.244,2.795,6.244,6.244v0C303.996,146.536,301.201,149.332,297.752,149.332z" data-original="#64798A" class=""/>
	<path style="fill:#64798A" d="M321.561,190.012H146.732c-3.448,0-6.244-2.796-6.244-6.244l0,0c0-3.448,2.795-6.244,6.244-6.244   h174.829c3.448,0,6.244,2.796,6.244,6.244l0,0C327.805,187.216,325.009,190.012,321.561,190.012z" data-original="#64798A" class=""/>
	<path style="fill:#64798A" d="M297.752,230.692H170.54c-3.448,0-6.244-2.795-6.244-6.244l0,0c0-3.448,2.796-6.244,6.244-6.244   h127.212c3.448,0,6.244,2.795,6.244,6.244l0,0C303.996,227.896,301.201,230.692,297.752,230.692z" data-original="#64798A" class=""/>
</g></g> </svg>
