<?xml version="1.0" encoding="utf-8"?>
<!-- Generator: Adobe Illustrator 17.0.0, SVG Export Plug-In . SVG Version: 6.00 Build 0)  -->
<!DOCTYPE svg PUBLIC "-//W3C//DTD SVG 1.1//EN" "http://www.w3.org/Graphics/SVG/1.1/DTD/svg11.dtd">
<svg version="1.1" id="Layer_1" xmlns="http://www.w3.org/2000/svg" xmlns:xlink="http://www.w3.org/1999/xlink" x="0px" y="0px"
	 width="731px" height="146.667px" viewBox="0 0 731 146.667" enable-background="new 0 0 731 146.667" xml:space="preserve">
<path fill="#FFFFFF" d="M715.965,129.855c0,5.523-4.477,10-10,10h-200.5c-5.523,0-10-4.477-10-10V17.105c0-5.523,4.477-10,10-10
	h200.5c5.523,0,10,4.477,10,10V129.855z"/>
<g>
	<path fill="#63A554" d="M618.305,53.734l-11.782,25.535h-1.204V48.173h-16.724v52.614h14.206c3.747-0.014,7.142-2.218,8.68-5.636
		l11.782-25.535h1.204v31.171h16.742V48.173h-14.206c-3.747,0.014-7.142,2.218-8.68,5.636"/>
	<path fill="#63A554" d="M555.507,55.089l-6.971,24.183h-1.204l-6.971-24.183c-1.18-4.093-4.928-6.913-9.189-6.916h-16.724v52.614
		h16.742V69.708h1.204l9.564,31.078h11.951l9.564-31.099h1.204v31.099h16.742V48.173h-16.724
		C560.435,48.173,556.688,50.993,555.507,55.089"/>
	<path fill="#63A554" d="M648.389,72.092v28.692h16.704V84.042h17.963c7.602,0.006,14.378-4.785,16.91-11.951L648.389,72.092
		L648.389,72.092z"/>
	
		<linearGradient id="SVGID_1_" gradientUnits="userSpaceOnUse" x1="243.9942" y1="902.9206" x2="261.9681" y2="902.9206" gradientTransform="matrix(3.06 0 0 3.06 -100.64 -2704.0068)">
		<stop  offset="0.01" style="stop-color:#5EA2DD"/>
		<stop  offset="0.36" style="stop-color:#5899D5"/>
		<stop  offset="0.94" style="stop-color:#4980BF"/>
		<stop  offset="1" style="stop-color:#477DBD"/>
	</linearGradient>
	<path fill="url(#SVGID_1_)" d="M683.055,48.173h-37.073c2.308,12.465,13.18,21.509,25.855,21.515h28.788
		c0.238-1.18,0.357-2.384,0.357-3.59C700.971,56.202,692.953,48.185,683.055,48.173"/>
</g>
<path fill="#FFFFFF" d="M474.917,129.855c0,5.523-4.477,10-10,10h-200.5c-5.523,0-10-4.477-10-10V17.105c0-5.523,4.477-10,10-10
	h200.5c5.523,0,10,4.477,10,10V129.855z"/>
<g>
	<path fill="#FF5F00" d="M387.526,111.21h-42.566V34.712h42.567L387.526,111.21z"/>
	<path fill="#EB001B" d="M347.658,72.962c0-15.518,7.266-29.341,18.58-38.249c-8.563-6.752-19.159-10.418-30.063-10.402
		c-26.867,0-48.645,21.782-48.645,48.651s21.778,48.651,48.645,48.651c10.904,0.016,21.501-3.651,30.064-10.402
		C354.925,102.304,347.658,88.481,347.658,72.962"/>
	<path fill="#F79410" d="M444.953,72.962c0,26.869-21.778,48.651-48.645,48.651c-10.906,0.016-21.504-3.651-30.068-10.402
		c11.317-8.909,18.583-22.73,18.583-38.249s-7.266-29.341-18.583-38.249c8.564-6.752,19.162-10.418,30.067-10.402
		C423.173,24.311,444.952,46.093,444.953,72.962"/>
</g>
<path fill="#FFFFFF" d="M233.547,129.855c0,5.523-4.477,10-10,10h-200.5c-5.523,0-10-4.477-10-10V17.105c0-5.523,4.477-10,10-10
	h200.5c5.523,0,10,4.477,10,10V129.855z"/>
<path fill="#1A1F71" d="M123.452,62.122c-0.106,8.404,7.49,13.094,13.212,15.882c5.879,2.861,7.854,4.696,7.832,7.254
	c-0.045,3.916-4.69,5.644-9.038,5.711c-7.585,0.118-11.995-2.048-15.501-3.686l-2.732,12.785c3.517,1.622,10.031,3.035,16.785,3.097
	c15.854,0,26.227-7.826,26.283-19.961c0.062-15.4-21.302-16.253-21.156-23.136c0.05-2.087,2.042-4.314,6.407-4.881
	c2.16-0.286,8.123-0.505,14.884,2.609l2.653-12.37c-3.635-1.324-8.309-2.592-14.126-2.592
	C134.033,42.835,123.537,50.767,123.452,62.122 M188.58,43.9c-2.895,0-5.335,1.689-6.424,4.281l-22.648,54.076h15.843l3.153-8.713
	h19.36l1.829,8.713h13.963L201.471,43.9H188.58z M190.796,59.665l4.572,21.913h-12.522L190.796,59.665z M104.243,43.9
	l-12.488,58.356h15.097L119.334,43.9H104.243z M81.91,43.9L66.196,83.62l-6.356-33.773c-0.746-3.77-3.691-5.947-6.962-5.947H27.189
	l-0.359,1.695c5.274,1.144,11.265,2.99,14.895,4.965c2.221,1.206,2.856,2.261,3.585,5.127l12.039,46.569h15.955L97.764,43.9H81.91z"
	/>
</svg>
