<?xml version="1.0" encoding="UTF-8" standalone="no"?>
<!-- Generator: Adobe Illustrator 17.0.0, SVG Export Plug-In . SVG Version: 6.00 Build 0)  -->

<svg
   xmlns:dc="http://purl.org/dc/elements/1.1/"
   xmlns:cc="http://creativecommons.org/ns#"
   xmlns:rdf="http://www.w3.org/1999/02/22-rdf-syntax-ns#"
   xmlns:svg="http://www.w3.org/2000/svg"
   xmlns="http://www.w3.org/2000/svg"
   xmlns:sodipodi="http://sodipodi.sourceforge.net/DTD/sodipodi-0.dtd"
   xmlns:inkscape="http://www.inkscape.org/namespaces/inkscape"
   version="1.1"
   id="Layer_1"
   x="0px"
   y="0px"
   width="612px"
   height="792px"
   viewBox="0 0 612 792"
   enable-background="new 0 0 612 792"
   xml:space="preserve"
   sodipodi:docname="pin.svg"
   inkscape:version="0.92.3 (2405546, 2018-03-11)"><metadata
   id="metadata826"><rdf:RDF><cc:Work
       rdf:about=""><dc:format>image/svg+xml</dc:format><dc:type
         rdf:resource="http://purl.org/dc/dcmitype/StillImage" /></cc:Work></rdf:RDF></metadata><defs
   id="defs824" /><sodipodi:namedview
   pagecolor="#ffffff"
   bordercolor="#666666"
   borderopacity="1"
   objecttolerance="10"
   gridtolerance="10"
   guidetolerance="10"
   inkscape:pageopacity="0"
   inkscape:pageshadow="2"
   inkscape:window-width="1920"
   inkscape:window-height="1153"
   id="namedview822"
   showgrid="false"
   inkscape:zoom="1.2020202"
   inkscape:cx="306"
   inkscape:cy="396"
   inkscape:window-x="-4"
   inkscape:window-y="-4"
   inkscape:window-maximized="1"
   inkscape:current-layer="Layer_1" />
<g
   id="g819">
	<path
   d="M306,85C174.004,85,66.617,192.387,66.617,324.383c0,127.928,216.848,366.649,226.077,376.747   C296.1,704.86,300.949,707,306,707s9.901-2.14,13.305-5.868c9.231-10.1,226.078-248.832,226.078-376.749   C545.383,192.387,437.996,85,306,85z M306,121.043c112.122,0,203.341,91.218,203.341,203.34c0,42.187-29.43,106.047-87.473,189.806   C377.623,578.038,328.499,636.035,306,661.815c-22.5-25.775-71.624-83.765-115.873-147.616   c-58.039-83.751-87.467-147.614-87.467-189.815C102.659,212.262,193.877,121.043,306,121.043z"
   id="path815" />
	<path
   d="M306,485.639c81.736,0,148.234-66.497,148.234-148.234S387.736,189.17,306,189.17   c-81.737,0-148.234,66.498-148.234,148.234S224.263,485.639,306,485.639z M306,225.211c61.863,0,112.192,50.329,112.192,112.192   c0,61.863-50.329,112.192-112.192,112.192c-61.863,0-112.192-50.329-112.192-112.192C193.808,275.541,244.137,225.211,306,225.211z   "
   id="path817" />
</g>
<path
   style="opacity:0;fill:#ff8080;fill-opacity:1;stroke-width:0.83193278"
   d="m 290.77563,484.4297 c -43.55656,-4.57176 -83.19041,-28.628 -107.79958,-65.43024 -18.88204,-28.23753 -27.62077,-63.36378 -24.01567,-96.53351 4.83674,-44.5016 28.94056,-84.09155 66.09256,-108.55544 53.94838,-35.52397 125.81504,-31.48459 175.12185,9.84301 27.12365,22.73428 44.20338,51.71353 51.21119,86.89018 3.00028,15.06034 2.81376,39.65912 -0.42109,55.53253 -7.80297,38.28925 -30.50148,72.17037 -62.85313,93.81824 -29.01675,19.41636 -63.25755,28.01215 -97.33613,24.43523 z m 41.89901,-37.68327 c 44.9003,-11.36142 77.58401,-47.35611 84.67981,-93.25819 1.65157,-10.68389 1.05547,-29.40108 -1.25852,-39.51681 -4.99198,-21.8227 -14.18015,-38.87355 -29.40214,-54.56276 -16.39878,-16.9021 -35.81261,-27.66056 -58.48118,-32.40821 -9.78011,-2.04832 -28.09804,-2.4887 -38.26891,-0.92003 -48.8081,7.52776 -86.63332,44.35893 -94.7923,92.30116 -1.77979,10.45804 -1.79644,27.91796 -0.0364,38.15872 3.95385,23.00541 14.49131,43.07742 31.59486,60.18269 13.62792,13.62929 27.98648,22.46293 45.34728,27.89843 13.26574,4.15337 19.48798,4.93608 36.60504,4.60463 13.22794,-0.25613 16.60235,-0.60459 24.01246,-2.47963 z"
   id="path828"
   inkscape:connector-curvature="0" /><path
   style="opacity:0;fill:#ff8080;fill-opacity:1;stroke-width:0.83193278"
   d="m 290.77563,484.4297 c -43.55656,-4.57176 -83.19041,-28.628 -107.79958,-65.43024 -18.88204,-28.23753 -27.62077,-63.36378 -24.01567,-96.53351 4.83674,-44.5016 28.94056,-84.09155 66.09256,-108.55544 53.94838,-35.52397 125.81504,-31.48459 175.12185,9.84301 27.12365,22.73428 44.20338,51.71353 51.21119,86.89018 3.00028,15.06034 2.81376,39.65912 -0.42109,55.53253 -7.80297,38.28925 -30.50148,72.17037 -62.85313,93.81824 -29.01675,19.41636 -63.25755,28.01215 -97.33613,24.43523 z m 41.89901,-37.68327 c 44.9003,-11.36142 77.58401,-47.35611 84.67981,-93.25819 1.65157,-10.68389 1.05547,-29.40108 -1.25852,-39.51681 -4.99198,-21.8227 -14.18015,-38.87355 -29.40214,-54.56276 -16.39878,-16.9021 -35.81261,-27.66056 -58.48118,-32.40821 -9.78011,-2.04832 -28.09804,-2.4887 -38.26891,-0.92003 -48.8081,7.52776 -86.63332,44.35893 -94.7923,92.30116 -1.77979,10.45804 -1.79644,27.91796 -0.0364,38.15872 3.95385,23.00541 14.49131,43.07742 31.59486,60.18269 13.62792,13.62929 27.98648,22.46293 45.34728,27.89843 13.26574,4.15337 19.48798,4.93608 36.60504,4.60463 13.22794,-0.25613 16.60235,-0.60459 24.01246,-2.47963 z"
   id="path830"
   inkscape:connector-curvature="0" /><path
   style="opacity:0;fill:#ff8080;fill-opacity:1;stroke-width:0.83193278"
   d="m 290.77563,484.4297 c -43.55656,-4.57176 -83.19041,-28.628 -107.79958,-65.43024 -18.88204,-28.23753 -27.62077,-63.36378 -24.01567,-96.53351 4.83674,-44.5016 28.94056,-84.09155 66.09256,-108.55544 53.94838,-35.52397 125.81504,-31.48459 175.12185,9.84301 27.12365,22.73428 44.20338,51.71353 51.21119,86.89018 3.00028,15.06034 2.81376,39.65912 -0.42109,55.53253 -7.80297,38.28925 -30.50148,72.17037 -62.85313,93.81824 -29.01675,19.41636 -63.25755,28.01215 -97.33613,24.43523 z m 41.89901,-37.68327 c 44.9003,-11.36142 77.58401,-47.35611 84.67981,-93.25819 1.65157,-10.68389 1.05547,-29.40108 -1.25852,-39.51681 -4.99198,-21.8227 -14.18015,-38.87355 -29.40214,-54.56276 -16.39878,-16.9021 -35.81261,-27.66056 -58.48118,-32.40821 -9.78011,-2.04832 -28.09804,-2.4887 -38.26891,-0.92003 -48.8081,7.52776 -86.63332,44.35893 -94.7923,92.30116 -1.77979,10.45804 -1.79644,27.91796 -0.0364,38.15872 3.95385,23.00541 14.49131,43.07742 31.59486,60.18269 13.62792,13.62929 27.98648,22.46293 45.34728,27.89843 13.26574,4.15337 19.48798,4.93608 36.60504,4.60463 13.22794,-0.25613 16.60235,-0.60459 24.01246,-2.47963 z"
   id="path832"
   inkscape:connector-curvature="0" /><path
   style="opacity:0;fill:#ff8080;fill-opacity:1;stroke-width:0.83193278"
   d="M 299.09496,705.13711 C 294.44643,702.95346 281.39553,688.61298 251.63182,652.98403 157.61773,540.44354 94.279274,439.36307 74.453932,370.22969 c -5.153259,-17.97003 -6.295778,-25.20606 -6.799639,-43.06483 -1.03863,-36.81301 6.402002,-71.48021 22.562368,-105.122 23.457389,-48.83234 61.520179,-87.56725 109.462329,-111.3952 45.64571,-22.686589 95.01007,-30.212497 144.84386,-22.082361 52.69111,8.596293 102.55891,35.673941 137.80452,74.826301 38.97899,43.29954 60.41812,95.83309 62.30097,152.65966 0.56936,17.18423 -0.59494,28.51195 -4.62018,44.95023 -13.64299,55.71531 -55.57524,130.89283 -123.28962,221.0377 -37.66493,50.14147 -95.5167,119.06992 -102.89539,122.59639 -4.54572,2.17252 -10.72318,2.38288 -14.72819,0.50153 z m 18.83688,-56.52072 c 83.46322,-97.51831 148.22374,-192.58018 174.99985,-256.88204 16.27741,-39.08959 19.84195,-64.45209 14.09969,-100.32252 -12.5853,-78.6173 -72.5878,-144.27719 -150.11709,-164.27103 -20.95972,-5.40526 -50.68228,-7.64228 -71.72817,-5.39851 -45.71934,4.87427 -87.69343,24.51889 -120.58369,56.43529 -17.75218,17.22656 -30.53644,34.75756 -41.08833,56.34427 -14.54009,29.74563 -20.63554,55.32753 -20.71467,86.93697 -0.0345,13.78973 0.24949,17.65752 1.89373,25.78992 12.29317,60.80212 68.77948,154.25377 163.17711,269.96218 16.79032,20.58084 37.31048,44.50841 38.17016,44.50841 0.37233,0 5.72347,-5.89633 11.89141,-13.10294 z"
   id="path834"
   inkscape:connector-curvature="0" /><path
   style="opacity:0;fill:#ff8080;fill-opacity:1;stroke-width:0.83193278"
   d="M 299.09496,705.13711 C 294.44643,702.95346 281.39553,688.61298 251.63182,652.98403 157.61773,540.44354 94.279274,439.36307 74.453932,370.22969 c -5.153259,-17.97003 -6.295778,-25.20606 -6.799639,-43.06483 -1.03863,-36.81301 6.402002,-71.48021 22.562368,-105.122 23.457389,-48.83234 61.520179,-87.56725 109.462329,-111.3952 45.64571,-22.686589 95.01007,-30.212497 144.84386,-22.082361 52.69111,8.596293 102.55891,35.673941 137.80452,74.826301 38.97899,43.29954 60.41812,95.83309 62.30097,152.65966 0.56936,17.18423 -0.59494,28.51195 -4.62018,44.95023 -13.64299,55.71531 -55.57524,130.89283 -123.28962,221.0377 -37.66493,50.14147 -95.5167,119.06992 -102.89539,122.59639 -4.54572,2.17252 -10.72318,2.38288 -14.72819,0.50153 z m 18.83688,-56.52072 c 83.46322,-97.51831 148.22374,-192.58018 174.99985,-256.88204 16.27741,-39.08959 19.84195,-64.45209 14.09969,-100.32252 -12.5853,-78.6173 -72.5878,-144.27719 -150.11709,-164.27103 -20.95972,-5.40526 -50.68228,-7.64228 -71.72817,-5.39851 -45.71934,4.87427 -87.69343,24.51889 -120.58369,56.43529 -17.75218,17.22656 -30.53644,34.75756 -41.08833,56.34427 -14.54009,29.74563 -20.63554,55.32753 -20.71467,86.93697 -0.0345,13.78973 0.24949,17.65752 1.89373,25.78992 12.29317,60.80212 68.77948,154.25377 163.17711,269.96218 16.79032,20.58084 37.31048,44.50841 38.17016,44.50841 0.37233,0 5.72347,-5.89633 11.89141,-13.10294 z"
   id="path836"
   inkscape:connector-curvature="0" /><path
   style="opacity:0;fill:#ff8080;fill-opacity:1;stroke-width:0.83193278"
   d="M 299.09496,705.13711 C 294.44643,702.95346 281.39553,688.61298 251.63182,652.98403 157.61773,540.44354 94.279274,439.36307 74.453932,370.22969 c -5.153259,-17.97003 -6.295778,-25.20606 -6.799639,-43.06483 -1.03863,-36.81301 6.402002,-71.48021 22.562368,-105.122 23.457389,-48.83234 61.520179,-87.56725 109.462329,-111.3952 45.64571,-22.686589 95.01007,-30.212497 144.84386,-22.082361 52.69111,8.596293 102.55891,35.673941 137.80452,74.826301 38.97899,43.29954 60.41812,95.83309 62.30097,152.65966 0.56936,17.18423 -0.59494,28.51195 -4.62018,44.95023 -13.64299,55.71531 -55.57524,130.89283 -123.28962,221.0377 -37.66493,50.14147 -95.5167,119.06992 -102.89539,122.59639 -4.54572,2.17252 -10.72318,2.38288 -14.72819,0.50153 z m 18.83688,-56.52072 c 83.46322,-97.51831 148.22374,-192.58018 174.99985,-256.88204 16.27741,-39.08959 19.84195,-64.45209 14.09969,-100.32252 -12.5853,-78.6173 -72.5878,-144.27719 -150.11709,-164.27103 -20.95972,-5.40526 -50.68228,-7.64228 -71.72817,-5.39851 -45.71934,4.87427 -87.69343,24.51889 -120.58369,56.43529 -17.75218,17.22656 -30.53644,34.75756 -41.08833,56.34427 -14.54009,29.74563 -20.63554,55.32753 -20.71467,86.93697 -0.0345,13.78973 0.24949,17.65752 1.89373,25.78992 12.29317,60.80212 68.77948,154.25377 163.17711,269.96218 16.79032,20.58084 37.31048,44.50841 38.17016,44.50841 0.37233,0 5.72347,-5.89633 11.89141,-13.10294 z"
   id="path838"
   inkscape:connector-curvature="0" /><path
   style="opacity:1;fill:#ff8080;fill-opacity:1;stroke:none;stroke-width:0.6917488;stroke-miterlimit:4;stroke-dasharray:none;stroke-opacity:1"
   d="m 290.77563,484.4297 c -43.55656,-4.57176 -83.19041,-28.628 -107.79958,-65.43024 -18.88204,-28.23753 -27.62077,-63.36378 -24.01567,-96.53351 4.83674,-44.5016 28.94056,-84.09155 66.09256,-108.55544 53.94838,-35.52398 125.81504,-31.4846 175.12185,9.84301 27.12365,22.73428 44.20338,51.71353 51.21119,86.89018 3.00028,15.06033 2.81376,39.65912 -0.42109,55.53253 -7.80297,38.28925 -30.50148,72.17037 -62.85313,93.81824 -29.01675,19.41636 -63.25755,28.01215 -97.33613,24.43523 z m 41.89901,-37.68326 c 44.9003,-11.36143 77.58401,-47.35612 84.67981,-93.2582 1.65157,-10.68389 1.05547,-29.40108 -1.25852,-39.51681 -4.99198,-21.8227 -14.18015,-38.87355 -29.40214,-54.56276 -16.39878,-16.9021 -35.81261,-27.66057 -58.48118,-32.40821 -9.78011,-2.04832 -28.09804,-2.4887 -38.26891,-0.92003 -48.8081,7.52776 -86.63332,44.35893 -94.7923,92.30116 -1.77979,10.45804 -1.79644,27.91796 -0.0364,38.15872 3.95385,23.00541 14.49131,43.07742 31.59486,60.18269 13.62792,13.62929 27.98648,22.46293 45.34728,27.89843 13.26574,4.15337 19.48798,4.93608 36.60504,4.60463 13.22794,-0.25613 16.60235,-0.60459 24.01246,-2.47962 z"
   id="path1128"
   inkscape:connector-curvature="0" /><path
   style="opacity:1;fill:#c45448;fill-opacity:0;stroke:none;stroke-width:0.6917488;stroke-miterlimit:4;stroke-dasharray:none;stroke-opacity:1"
   d="M 299.09496,705.13711 C 294.44643,702.95346 281.39553,688.61298 251.63182,652.98403 157.61773,540.44354 94.279274,439.36307 74.453931,370.22969 c -5.153259,-17.97003 -6.295777,-25.20606 -6.799639,-43.06483 -1.03863,-36.81301 6.402002,-71.48021 22.562368,-105.122 23.45739,-48.83234 61.52018,-87.56725 109.46233,-111.3952 45.64571,-22.68659 95.01007,-30.212498 144.84386,-22.082361 52.69111,8.596292 102.55891,35.673941 137.80452,74.826301 38.97899,43.29953 60.41812,95.83309 62.30097,152.65966 0.56936,17.18423 -0.59494,28.51195 -4.62018,44.95023 -13.64299,55.71531 -55.57524,130.89283 -123.28962,221.0377 -37.66493,50.14147 -95.5167,119.06993 -102.89539,122.59639 -4.54572,2.17252 -10.72318,2.38288 -14.72819,0.50153 z m 18.83688,-56.52072 c 83.46322,-97.51831 148.22374,-192.58018 174.99985,-256.88204 16.27741,-39.08959 19.84195,-64.45209 14.09969,-100.32252 -12.5853,-78.6173 -72.5878,-144.27719 -150.11709,-164.27103 -20.95972,-5.40526 -50.68228,-7.64228 -71.72817,-5.39851 -45.71934,4.87427 -87.69343,24.51889 -120.58369,56.43529 -17.75218,17.22656 -30.53644,34.75756 -41.08833,56.34427 -14.54009,29.74563 -20.63555,55.32753 -20.71467,86.93697 -0.0345,13.78973 0.24949,17.65752 1.89373,25.78992 12.29317,60.80212 68.77948,154.25377 163.17711,269.96218 16.79032,20.58084 37.31048,44.50841 38.17016,44.50841 0.37233,0 5.72347,-5.89633 11.89141,-13.10294 z"
   id="path1130"
   inkscape:connector-curvature="0" /><path
   style="opacity:1;fill:#c45448;fill-opacity:0;stroke:none;stroke-width:0.6917488;stroke-miterlimit:4;stroke-dasharray:none;stroke-opacity:1"
   d="M 299.09496,705.13711 C 294.44643,702.95346 281.39553,688.61298 251.63182,652.98403 157.61773,540.44354 94.279274,439.36307 74.453931,370.22969 c -5.153259,-17.97003 -6.295777,-25.20606 -6.799639,-43.06483 -1.03863,-36.81301 6.402002,-71.48021 22.562368,-105.122 23.45739,-48.83234 61.52018,-87.56725 109.46233,-111.3952 45.64571,-22.68659 95.01007,-30.212498 144.84386,-22.082361 52.69111,8.596292 102.55891,35.673941 137.80452,74.826301 38.97899,43.29953 60.41812,95.83309 62.30097,152.65966 0.56936,17.18423 -0.59494,28.51195 -4.62018,44.95023 -13.64299,55.71531 -55.57524,130.89283 -123.28962,221.0377 -37.66493,50.14147 -95.5167,119.06993 -102.89539,122.59639 -4.54572,2.17252 -10.72318,2.38288 -14.72819,0.50153 z m 18.83688,-56.52072 c 83.46322,-97.51831 148.22374,-192.58018 174.99985,-256.88204 16.27741,-39.08959 19.84195,-64.45209 14.09969,-100.32252 -12.5853,-78.6173 -72.5878,-144.27719 -150.11709,-164.27103 -20.95972,-5.40526 -50.68228,-7.64228 -71.72817,-5.39851 -45.71934,4.87427 -87.69343,24.51889 -120.58369,56.43529 -17.75218,17.22656 -30.53644,34.75756 -41.08833,56.34427 -14.54009,29.74563 -20.63555,55.32753 -20.71467,86.93697 -0.0345,13.78973 0.24949,17.65752 1.89373,25.78992 12.29317,60.80212 68.77948,154.25377 163.17711,269.96218 16.79032,20.58084 37.31048,44.50841 38.17016,44.50841 0.37233,0 5.72347,-5.89633 11.89141,-13.10294 z"
   id="path1132"
   inkscape:connector-curvature="0" /><path
   style="opacity:1;fill:#c45448;fill-opacity:0;stroke:none;stroke-width:0.6917488;stroke-miterlimit:4;stroke-dasharray:none;stroke-opacity:1"
   d="m 284.47662,483.29486 c -48.99698,-7.98257 -90.3142,-38.72929 -111.30651,-82.83013 -5.51402,-11.5839 -9.10594,-22.15896 -11.89274,-35.01363 -1.6209,-7.47669 -1.87708,-11.1463 -1.90958,-27.35362 -0.0326,-16.24031 0.21121,-19.94504 1.84132,-27.98305 11.87516,-58.55582 55.39705,-103.43662 112.78642,-116.308 32.1723,-7.21566 65.62739,-3.43441 95.20868,10.76094 47.01426,22.561 79.28203,68.83949 83.40609,119.62114 3.59416,44.25684 -11.50055,85.75185 -42.56716,117.0161 -20.67074,20.80226 -46.81494,34.81811 -76.41462,40.96574 -10.52594,2.18615 -38.68169,2.83031 -49.1519,1.12451 z m 39.16035,-34.57791 c 9.44542,-1.22337 20.18393,-4.57516 30.5764,-9.54371 31.31836,-14.97305 52.84382,-41.52699 61.59078,-75.97879 2.09224,-8.24069 2.25175,-10.09192 2.2342,-25.9289 -0.0174,-15.71261 -0.19471,-17.75293 -2.25309,-25.92891 -5.3928,-21.42038 -14.7701,-38.0062 -30.22693,-53.46303 -12.114,-12.11399 -25.5691,-20.789 -41.12304,-26.51355 -14.12822,-5.19982 -19.1986,-5.99132 -38.2689,-5.97386 -19.34647,0.0177 -25.63052,1.10636 -41.21575,7.14013 -15.75167,6.09821 -28.90663,15.03606 -41.2449,28.02296 -14.74893,15.52428 -24.97306,35.65524 -28.56249,56.23854 -1.93031,11.06926 -1.73957,32.55825 0.38139,42.96596 3.12868,15.35268 7.84705,26.63715 16.62496,39.76026 11.91575,17.81425 30.86134,33.7316 49.60025,41.67223 7.18427,3.04433 19.06988,6.57107 25.28208,7.50178 6.48041,0.97089 29.19371,0.98882 36.60504,0.0289 z"
   id="path1134"
   inkscape:connector-curvature="0" /><path
   style="opacity:1;fill:#c45448;fill-opacity:0;stroke:none;stroke-width:0.6917488;stroke-miterlimit:4;stroke-dasharray:none;stroke-opacity:1"
   d="m 284.47662,483.29486 c -48.99698,-7.98257 -90.3142,-38.72929 -111.30651,-82.83013 -5.51402,-11.5839 -9.10594,-22.15896 -11.89274,-35.01363 -1.6209,-7.47669 -1.87708,-11.1463 -1.90958,-27.35362 -0.0326,-16.24031 0.21121,-19.94504 1.84132,-27.98305 11.87516,-58.55582 55.39705,-103.43662 112.78642,-116.308 32.1723,-7.21566 65.62739,-3.43441 95.20868,10.76094 47.01426,22.561 79.28203,68.83949 83.40609,119.62114 3.59416,44.25684 -11.50055,85.75185 -42.56716,117.0161 -20.67074,20.80226 -46.81494,34.81811 -76.41462,40.96574 -10.52594,2.18615 -38.68169,2.83031 -49.1519,1.12451 z m 39.16035,-34.57791 c 9.44542,-1.22337 20.18393,-4.57516 30.5764,-9.54371 31.31836,-14.97305 52.84382,-41.52699 61.59078,-75.97879 2.09224,-8.24069 2.25175,-10.09192 2.2342,-25.9289 -0.0174,-15.71261 -0.19471,-17.75293 -2.25309,-25.92891 -5.3928,-21.42038 -14.7701,-38.0062 -30.22693,-53.46303 -12.114,-12.11399 -25.5691,-20.789 -41.12304,-26.51355 -14.12822,-5.19982 -19.1986,-5.99132 -38.2689,-5.97386 -19.34647,0.0177 -25.63052,1.10636 -41.21575,7.14013 -15.75167,6.09821 -28.90663,15.03606 -41.2449,28.02296 -14.74893,15.52428 -24.97306,35.65524 -28.56249,56.23854 -1.93031,11.06926 -1.73957,32.55825 0.38139,42.96596 3.12868,15.35268 7.84705,26.63715 16.62496,39.76026 11.91575,17.81425 30.86134,33.7316 49.60025,41.67223 7.18427,3.04433 19.06988,6.57107 25.28208,7.50178 6.48041,0.97089 29.19371,0.98882 36.60504,0.0289 z"
   id="path1136"
   inkscape:connector-curvature="0" /><path
   style="opacity:1;fill:#c45448;fill-opacity:0;stroke:none;stroke-width:0.6917488;stroke-miterlimit:4;stroke-dasharray:none;stroke-opacity:1"
   d="m 284.47662,483.29486 c -48.99698,-7.98257 -90.3142,-38.72929 -111.30651,-82.83013 -5.51402,-11.5839 -9.10594,-22.15896 -11.89274,-35.01363 -1.6209,-7.47669 -1.87708,-11.1463 -1.90958,-27.35362 -0.0326,-16.24031 0.21121,-19.94504 1.84132,-27.98305 11.87516,-58.55582 55.39705,-103.43662 112.78642,-116.308 32.1723,-7.21566 65.62739,-3.43441 95.20868,10.76094 47.01426,22.561 79.28203,68.83949 83.40609,119.62114 3.59416,44.25684 -11.50055,85.75185 -42.56716,117.0161 -20.67074,20.80226 -46.81494,34.81811 -76.41462,40.96574 -10.52594,2.18615 -38.68169,2.83031 -49.1519,1.12451 z m 39.16035,-34.57791 c 9.44542,-1.22337 20.18393,-4.57516 30.5764,-9.54371 31.31836,-14.97305 52.84382,-41.52699 61.59078,-75.97879 2.09224,-8.24069 2.25175,-10.09192 2.2342,-25.9289 -0.0174,-15.71261 -0.19471,-17.75293 -2.25309,-25.92891 -5.3928,-21.42038 -14.7701,-38.0062 -30.22693,-53.46303 -12.114,-12.11399 -25.5691,-20.789 -41.12304,-26.51355 -14.12822,-5.19982 -19.1986,-5.99132 -38.2689,-5.97386 -19.34647,0.0177 -25.63052,1.10636 -41.21575,7.14013 -15.75167,6.09821 -28.90663,15.03606 -41.2449,28.02296 -14.74893,15.52428 -24.97306,35.65524 -28.56249,56.23854 -1.93031,11.06926 -1.73957,32.55825 0.38139,42.96596 3.12868,15.35268 7.84705,26.63715 16.62496,39.76026 11.91575,17.81425 30.86134,33.7316 49.60025,41.67223 7.18427,3.04433 19.06988,6.57107 25.28208,7.50178 6.48041,0.97089 29.19371,0.98882 36.60504,0.0289 z"
   id="path1138"
   inkscape:connector-curvature="0" /><path
   style="opacity:1;fill:#c45448;fill-opacity:0;stroke:none;stroke-width:0.6917488;stroke-miterlimit:4;stroke-dasharray:none;stroke-opacity:1"
   d="m 284.47662,483.29486 c -48.99698,-7.98257 -90.3142,-38.72929 -111.30651,-82.83013 -5.51402,-11.5839 -9.10594,-22.15896 -11.89274,-35.01363 -1.6209,-7.47669 -1.87708,-11.1463 -1.90958,-27.35362 -0.0326,-16.24031 0.21121,-19.94504 1.84132,-27.98305 11.87516,-58.55582 55.39705,-103.43662 112.78642,-116.308 32.1723,-7.21566 65.62739,-3.43441 95.20868,10.76094 47.01426,22.561 79.28203,68.83949 83.40609,119.62114 3.59416,44.25684 -11.50055,85.75185 -42.56716,117.0161 -20.67074,20.80226 -46.81494,34.81811 -76.41462,40.96574 -10.52594,2.18615 -38.68169,2.83031 -49.1519,1.12451 z m 39.16035,-34.57791 c 9.44542,-1.22337 20.18393,-4.57516 30.5764,-9.54371 31.31836,-14.97305 52.84382,-41.52699 61.59078,-75.97879 2.09224,-8.24069 2.25175,-10.09192 2.2342,-25.9289 -0.0174,-15.71261 -0.19471,-17.75293 -2.25309,-25.92891 -5.3928,-21.42038 -14.7701,-38.0062 -30.22693,-53.46303 -12.114,-12.11399 -25.5691,-20.789 -41.12304,-26.51355 -14.12822,-5.19982 -19.1986,-5.99132 -38.2689,-5.97386 -19.34647,0.0177 -25.63052,1.10636 -41.21575,7.14013 -15.75167,6.09821 -28.90663,15.03606 -41.2449,28.02296 -14.74893,15.52428 -24.97306,35.65524 -28.56249,56.23854 -1.93031,11.06926 -1.73957,32.55825 0.38139,42.96596 3.12868,15.35268 7.84705,26.63715 16.62496,39.76026 11.91575,17.81425 30.86134,33.7316 49.60025,41.67223 7.18427,3.04433 19.06988,6.57107 25.28208,7.50178 6.48041,0.97089 29.19371,0.98882 36.60504,0.0289 z"
   id="path1140"
   inkscape:connector-curvature="0" /><path
   style="opacity:1;fill:#c45448;fill-opacity:0;stroke:none;stroke-width:0.6917488;stroke-miterlimit:4;stroke-dasharray:none;stroke-opacity:1"
   d="M 299.09496,705.13711 C 294.44643,702.95346 281.39553,688.61298 251.63182,652.98403 157.61773,540.44354 94.279274,439.36307 74.453931,370.22969 c -5.153259,-17.97003 -6.295777,-25.20606 -6.799639,-43.06483 -1.03863,-36.81301 6.402002,-71.48021 22.562368,-105.122 23.45739,-48.83234 61.52018,-87.56725 109.46233,-111.3952 45.64571,-22.68659 95.01007,-30.212498 144.84386,-22.082361 52.69111,8.596292 102.55891,35.673941 137.80452,74.826301 38.97899,43.29953 60.41812,95.83309 62.30097,152.65966 0.56936,17.18423 -0.59494,28.51195 -4.62018,44.95023 -13.64299,55.71531 -55.57524,130.89283 -123.28962,221.0377 -37.66493,50.14147 -95.5167,119.06993 -102.89539,122.59639 -4.54572,2.17252 -10.72318,2.38288 -14.72819,0.50153 z m 18.83688,-56.52072 c 83.46322,-97.51831 148.22374,-192.58018 174.99985,-256.88204 16.27741,-39.08959 19.84195,-64.45209 14.09969,-100.32252 -12.5853,-78.6173 -72.5878,-144.27719 -150.11709,-164.27103 -20.95972,-5.40526 -50.68228,-7.64228 -71.72817,-5.39851 -45.71934,4.87427 -87.69343,24.51889 -120.58369,56.43529 -17.75218,17.22656 -30.53644,34.75756 -41.08833,56.34427 -14.54009,29.74563 -20.63555,55.32753 -20.71467,86.93697 -0.0345,13.78973 0.24949,17.65752 1.89373,25.78992 12.29317,60.80212 68.77948,154.25377 163.17711,269.96218 16.79032,20.58084 37.31048,44.50841 38.17016,44.50841 0.37233,0 5.72347,-5.89633 11.89141,-13.10294 z"
   id="path1142"
   inkscape:connector-curvature="0" /><path
   style="opacity:1;fill:#c45448;fill-opacity:0;stroke:none;stroke-width:0.6917488;stroke-miterlimit:4;stroke-dasharray:none;stroke-opacity:1"
   d="M 299.09496,705.13711 C 294.44643,702.95346 281.39553,688.61298 251.63182,652.98403 157.61773,540.44354 94.279274,439.36307 74.453931,370.22969 c -5.153259,-17.97003 -6.295777,-25.20606 -6.799639,-43.06483 -1.03863,-36.81301 6.402002,-71.48021 22.562368,-105.122 23.45739,-48.83234 61.52018,-87.56725 109.46233,-111.3952 45.64571,-22.68659 95.01007,-30.212498 144.84386,-22.082361 52.69111,8.596292 102.55891,35.673941 137.80452,74.826301 38.97899,43.29953 60.41812,95.83309 62.30097,152.65966 0.56936,17.18423 -0.59494,28.51195 -4.62018,44.95023 -13.64299,55.71531 -55.57524,130.89283 -123.28962,221.0377 -37.66493,50.14147 -95.5167,119.06993 -102.89539,122.59639 -4.54572,2.17252 -10.72318,2.38288 -14.72819,0.50153 z m 18.83688,-56.52072 c 83.46322,-97.51831 148.22374,-192.58018 174.99985,-256.88204 16.27741,-39.08959 19.84195,-64.45209 14.09969,-100.32252 -12.5853,-78.6173 -72.5878,-144.27719 -150.11709,-164.27103 -20.95972,-5.40526 -50.68228,-7.64228 -71.72817,-5.39851 -45.71934,4.87427 -87.69343,24.51889 -120.58369,56.43529 -17.75218,17.22656 -30.53644,34.75756 -41.08833,56.34427 -14.54009,29.74563 -20.63555,55.32753 -20.71467,86.93697 -0.0345,13.78973 0.24949,17.65752 1.89373,25.78992 12.29317,60.80212 68.77948,154.25377 163.17711,269.96218 16.79032,20.58084 37.31048,44.50841 38.17016,44.50841 0.37233,0 5.72347,-5.89633 11.89141,-13.10294 z"
   id="path1144"
   inkscape:connector-curvature="0" /><path
   style="opacity:1;fill:#c45448;fill-opacity:0;stroke:none;stroke-width:0.6917488;stroke-miterlimit:4;stroke-dasharray:none;stroke-opacity:1"
   d="M 299.09496,705.13711 C 294.44643,702.95346 281.39553,688.61298 251.63182,652.98403 157.61773,540.44354 94.279274,439.36307 74.453931,370.22969 c -5.153259,-17.97003 -6.295777,-25.20606 -6.799639,-43.06483 -1.03863,-36.81301 6.402002,-71.48021 22.562368,-105.122 23.45739,-48.83234 61.52018,-87.56725 109.46233,-111.3952 45.64571,-22.68659 95.01007,-30.212498 144.84386,-22.082361 52.69111,8.596292 102.55891,35.673941 137.80452,74.826301 38.97899,43.29953 60.41812,95.83309 62.30097,152.65966 0.56936,17.18423 -0.59494,28.51195 -4.62018,44.95023 -13.64299,55.71531 -55.57524,130.89283 -123.28962,221.0377 -37.66493,50.14147 -95.5167,119.06993 -102.89539,122.59639 -4.54572,2.17252 -10.72318,2.38288 -14.72819,0.50153 z m 18.83688,-56.52072 c 83.46322,-97.51831 148.22374,-192.58018 174.99985,-256.88204 16.27741,-39.08959 19.84195,-64.45209 14.09969,-100.32252 -12.5853,-78.6173 -72.5878,-144.27719 -150.11709,-164.27103 -20.95972,-5.40526 -50.68228,-7.64228 -71.72817,-5.39851 -45.71934,4.87427 -87.69343,24.51889 -120.58369,56.43529 -17.75218,17.22656 -30.53644,34.75756 -41.08833,56.34427 -14.54009,29.74563 -20.63555,55.32753 -20.71467,86.93697 -0.0345,13.78973 0.24949,17.65752 1.89373,25.78992 12.29317,60.80212 68.77948,154.25377 163.17711,269.96218 16.79032,20.58084 37.31048,44.50841 38.17016,44.50841 0.37233,0 5.72347,-5.89633 11.89141,-13.10294 z"
   id="path1146"
   inkscape:connector-curvature="0" /><path
   style="opacity:1;fill:#c45448;fill-opacity:0;stroke:none;stroke-width:0.6917488;stroke-miterlimit:4;stroke-dasharray:none;stroke-opacity:1"
   d="m 284.47662,483.29486 c -48.99698,-7.98257 -90.3142,-38.72929 -111.30651,-82.83013 -5.51402,-11.5839 -9.10594,-22.15896 -11.89274,-35.01363 -1.6209,-7.47669 -1.87708,-11.1463 -1.90958,-27.35362 -0.0326,-16.24031 0.21121,-19.94504 1.84132,-27.98305 11.87516,-58.55582 55.39705,-103.43662 112.78642,-116.308 32.1723,-7.21566 65.62739,-3.43441 95.20868,10.76094 47.01426,22.561 79.28203,68.83949 83.40609,119.62114 3.59416,44.25684 -11.50055,85.75185 -42.56716,117.0161 -20.67074,20.80226 -46.81494,34.81811 -76.41462,40.96574 -10.52594,2.18615 -38.68169,2.83031 -49.1519,1.12451 z m 39.16035,-34.57791 c 9.44542,-1.22337 20.18393,-4.57516 30.5764,-9.54371 31.31836,-14.97305 52.84382,-41.52699 61.59078,-75.97879 2.09224,-8.24069 2.25175,-10.09192 2.2342,-25.9289 -0.0174,-15.71261 -0.19471,-17.75293 -2.25309,-25.92891 -5.3928,-21.42038 -14.7701,-38.0062 -30.22693,-53.46303 -12.114,-12.11399 -25.5691,-20.789 -41.12304,-26.51355 -14.12822,-5.19982 -19.1986,-5.99132 -38.2689,-5.97386 -19.34647,0.0177 -25.63052,1.10636 -41.21575,7.14013 -15.75167,6.09821 -28.90663,15.03606 -41.2449,28.02296 -14.74893,15.52428 -24.97306,35.65524 -28.56249,56.23854 -1.93031,11.06926 -1.73957,32.55825 0.38139,42.96596 3.12868,15.35268 7.84705,26.63715 16.62496,39.76026 11.91575,17.81425 30.86134,33.7316 49.60025,41.67223 7.18427,3.04433 19.06988,6.57107 25.28208,7.50178 6.48041,0.97089 29.19371,0.98882 36.60504,0.0289 z"
   id="path1148"
   inkscape:connector-curvature="0" /><path
   style="opacity:1;fill:#c45448;fill-opacity:0;stroke:none;stroke-width:0.6917488;stroke-miterlimit:4;stroke-dasharray:none;stroke-opacity:1"
   d="m 284.47662,483.29486 c -48.99698,-7.98257 -90.3142,-38.72929 -111.30651,-82.83013 -5.51402,-11.5839 -9.10594,-22.15896 -11.89274,-35.01363 -1.6209,-7.47669 -1.87708,-11.1463 -1.90958,-27.35362 -0.0326,-16.24031 0.21121,-19.94504 1.84132,-27.98305 11.87516,-58.55582 55.39705,-103.43662 112.78642,-116.308 32.1723,-7.21566 65.62739,-3.43441 95.20868,10.76094 47.01426,22.561 79.28203,68.83949 83.40609,119.62114 3.59416,44.25684 -11.50055,85.75185 -42.56716,117.0161 -20.67074,20.80226 -46.81494,34.81811 -76.41462,40.96574 -10.52594,2.18615 -38.68169,2.83031 -49.1519,1.12451 z m 39.16035,-34.57791 c 9.44542,-1.22337 20.18393,-4.57516 30.5764,-9.54371 31.31836,-14.97305 52.84382,-41.52699 61.59078,-75.97879 2.09224,-8.24069 2.25175,-10.09192 2.2342,-25.9289 -0.0174,-15.71261 -0.19471,-17.75293 -2.25309,-25.92891 -5.3928,-21.42038 -14.7701,-38.0062 -30.22693,-53.46303 -12.114,-12.11399 -25.5691,-20.789 -41.12304,-26.51355 -14.12822,-5.19982 -19.1986,-5.99132 -38.2689,-5.97386 -19.34647,0.0177 -25.63052,1.10636 -41.21575,7.14013 -15.75167,6.09821 -28.90663,15.03606 -41.2449,28.02296 -14.74893,15.52428 -24.97306,35.65524 -28.56249,56.23854 -1.93031,11.06926 -1.73957,32.55825 0.38139,42.96596 3.12868,15.35268 7.84705,26.63715 16.62496,39.76026 11.91575,17.81425 30.86134,33.7316 49.60025,41.67223 7.18427,3.04433 19.06988,6.57107 25.28208,7.50178 6.48041,0.97089 29.19371,0.98882 36.60504,0.0289 z"
   id="path1150"
   inkscape:connector-curvature="0" /><path
   style="opacity:1;fill:#c45448;fill-opacity:0;stroke:none;stroke-width:0.6917488;stroke-miterlimit:4;stroke-dasharray:none;stroke-opacity:1"
   d="M 299.09496,705.13711 C 294.44643,702.95346 281.39553,688.61298 251.63182,652.98403 157.61773,540.44354 94.279274,439.36307 74.453931,370.22969 c -5.153259,-17.97003 -6.295777,-25.20606 -6.799639,-43.06483 -1.03863,-36.81301 6.402002,-71.48021 22.562368,-105.122 23.45739,-48.83234 61.52018,-87.56725 109.46233,-111.3952 45.64571,-22.68659 95.01007,-30.212498 144.84386,-22.082361 52.69111,8.596292 102.55891,35.673941 137.80452,74.826301 38.97899,43.29953 60.41812,95.83309 62.30097,152.65966 0.56936,17.18423 -0.59494,28.51195 -4.62018,44.95023 -13.64299,55.71531 -55.57524,130.89283 -123.28962,221.0377 -37.66493,50.14147 -95.5167,119.06993 -102.89539,122.59639 -4.54572,2.17252 -10.72318,2.38288 -14.72819,0.50153 z m 18.83688,-56.52072 c 83.46322,-97.51831 148.22374,-192.58018 174.99985,-256.88204 16.27741,-39.08959 19.84195,-64.45209 14.09969,-100.32252 -12.5853,-78.6173 -72.5878,-144.27719 -150.11709,-164.27103 -20.95972,-5.40526 -50.68228,-7.64228 -71.72817,-5.39851 -45.71934,4.87427 -87.69343,24.51889 -120.58369,56.43529 -17.75218,17.22656 -30.53644,34.75756 -41.08833,56.34427 -14.54009,29.74563 -20.63555,55.32753 -20.71467,86.93697 -0.0345,13.78973 0.24949,17.65752 1.89373,25.78992 12.29317,60.80212 68.77948,154.25377 163.17711,269.96218 16.79032,20.58084 37.31048,44.50841 38.17016,44.50841 0.37233,0 5.72347,-5.89633 11.89141,-13.10294 z"
   id="path1152"
   inkscape:connector-curvature="0" /><path
   style="opacity:1;fill:#c45448;fill-opacity:0;stroke:none;stroke-width:0.6917488;stroke-miterlimit:4;stroke-dasharray:none;stroke-opacity:1"
   d="M 299.09496,705.13711 C 294.44643,702.95346 281.39553,688.61298 251.63182,652.98403 157.61773,540.44354 94.279274,439.36307 74.453931,370.22969 c -5.153259,-17.97003 -6.295777,-25.20606 -6.799639,-43.06483 -1.03863,-36.81301 6.402002,-71.48021 22.562368,-105.122 23.45739,-48.83234 61.52018,-87.56725 109.46233,-111.3952 45.64571,-22.68659 95.01007,-30.212498 144.84386,-22.082361 52.69111,8.596292 102.55891,35.673941 137.80452,74.826301 38.97899,43.29953 60.41812,95.83309 62.30097,152.65966 0.56936,17.18423 -0.59494,28.51195 -4.62018,44.95023 -13.64299,55.71531 -55.57524,130.89283 -123.28962,221.0377 -37.66493,50.14147 -95.5167,119.06993 -102.89539,122.59639 -4.54572,2.17252 -10.72318,2.38288 -14.72819,0.50153 z m 18.83688,-56.52072 c 83.46322,-97.51831 148.22374,-192.58018 174.99985,-256.88204 16.27741,-39.08959 19.84195,-64.45209 14.09969,-100.32252 -12.5853,-78.6173 -72.5878,-144.27719 -150.11709,-164.27103 -20.95972,-5.40526 -50.68228,-7.64228 -71.72817,-5.39851 -45.71934,4.87427 -87.69343,24.51889 -120.58369,56.43529 -17.75218,17.22656 -30.53644,34.75756 -41.08833,56.34427 -14.54009,29.74563 -20.63555,55.32753 -20.71467,86.93697 -0.0345,13.78973 0.24949,17.65752 1.89373,25.78992 12.29317,60.80212 68.77948,154.25377 163.17711,269.96218 16.79032,20.58084 37.31048,44.50841 38.17016,44.50841 0.37233,0 5.72347,-5.89633 11.89141,-13.10294 z"
   id="path1154"
   inkscape:connector-curvature="0" /><path
   style="opacity:1;fill:#c45448;fill-opacity:0;stroke:none;stroke-width:0.6917488;stroke-miterlimit:4;stroke-dasharray:none;stroke-opacity:1"
   d="M 299.09496,705.13711 C 294.44643,702.95346 281.39553,688.61298 251.63182,652.98403 157.61773,540.44354 94.279274,439.36307 74.453931,370.22969 c -5.153259,-17.97003 -6.295777,-25.20606 -6.799639,-43.06483 -1.03863,-36.81301 6.402002,-71.48021 22.562368,-105.122 23.45739,-48.83234 61.52018,-87.56725 109.46233,-111.3952 45.64571,-22.68659 95.01007,-30.212498 144.84386,-22.082361 52.69111,8.596292 102.55891,35.673941 137.80452,74.826301 38.97899,43.29953 60.41812,95.83309 62.30097,152.65966 0.56936,17.18423 -0.59494,28.51195 -4.62018,44.95023 -13.64299,55.71531 -55.57524,130.89283 -123.28962,221.0377 -37.66493,50.14147 -95.5167,119.06993 -102.89539,122.59639 -4.54572,2.17252 -10.72318,2.38288 -14.72819,0.50153 z m 18.83688,-56.52072 c 83.46322,-97.51831 148.22374,-192.58018 174.99985,-256.88204 16.27741,-39.08959 19.84195,-64.45209 14.09969,-100.32252 -12.5853,-78.6173 -72.5878,-144.27719 -150.11709,-164.27103 -20.95972,-5.40526 -50.68228,-7.64228 -71.72817,-5.39851 -45.71934,4.87427 -87.69343,24.51889 -120.58369,56.43529 -17.75218,17.22656 -30.53644,34.75756 -41.08833,56.34427 -14.54009,29.74563 -20.63555,55.32753 -20.71467,86.93697 -0.0345,13.78973 0.24949,17.65752 1.89373,25.78992 12.29317,60.80212 68.77948,154.25377 163.17711,269.96218 16.79032,20.58084 37.31048,44.50841 38.17016,44.50841 0.37233,0 5.72347,-5.89633 11.89141,-13.10294 z"
   id="path1156"
   inkscape:connector-curvature="0" /></svg>