<?xml version="1.0" encoding="UTF-8" standalone="no"?>
<!DOCTYPE svg PUBLIC "-//W3C//DTD SVG 1.1//EN" "http://www.w3.org/Graphics/SVG/1.1/DTD/svg11.dtd">
<svg version="1.1" xmlns="http://www.w3.org/2000/svg" xmlns:xlink="http://www.w3.org/1999/xlink" preserveAspectRatio="xMidYMid meet" viewBox="65.617 84 482.766 626" width="478.77" height="622"><defs><path d="M66.62 324.38C66.62 452.31 283.47 691.03 292.69 701.13C296.1 704.86 300.95 707 306 707C311.05 707 315.9 704.86 319.31 701.13C328.54 691.03 545.38 452.3 545.38 324.38C545.38 192.39 438 85 306 85C174 85 66.62 192.39 66.62 324.38ZM509.34 324.38C509.34 366.57 479.91 430.43 421.87 514.19C377.62 578.04 328.5 636.04 306 661.82C283.5 636.04 234.38 578.05 190.13 514.2C132.09 430.45 102.66 366.59 102.66 324.38C102.66 212.26 193.88 121.04 306 121.04C418.12 121.04 509.34 212.26 509.34 324.38Z" id="aN0PcTvGd"></path><path d="M454.23 337.41C454.23 255.67 387.74 189.17 306 189.17C224.26 189.17 157.77 255.67 157.77 337.4C157.77 419.14 224.26 485.64 306 485.64C387.74 485.64 454.23 419.14 454.23 337.41ZM418.19 337.4C418.19 399.27 367.86 449.6 306 449.6C244.14 449.6 193.81 399.27 193.81 337.4C193.81 275.54 244.14 225.21 306 225.21C367.86 225.21 418.19 275.54 418.19 337.4Z" id="d94ElfUwP"></path></defs><g><g><use xlink:href="#aN0PcTvGd" opacity="1" fill="#c45448" fill-opacity="1"></use><g><use xlink:href="#aN0PcTvGd" opacity="1" fill-opacity="0" stroke="#000000" stroke-width="1" stroke-opacity="0"></use></g></g><g><use xlink:href="#d94ElfUwP" opacity="1" fill="#c45448" fill-opacity="1"></use><g><use xlink:href="#d94ElfUwP" opacity="1" fill-opacity="0" stroke="#000000" stroke-width="1" stroke-opacity="0"></use></g></g></g></svg>