<?xml version="1.0" encoding="utf-8"?>
<!-- Generator: Adobe Illustrator 17.0.0, SVG Export Plug-In . SVG Version: 6.00 Build 0)  -->
<!DOCTYPE svg PUBLIC "-//W3C//DTD SVG 1.1//EN" "http://www.w3.org/Graphics/SVG/1.1/DTD/svg11.dtd">
<svg version="1.1" id="Layer_1" xmlns="http://www.w3.org/2000/svg" xmlns:xlink="http://www.w3.org/1999/xlink" x="0px" y="0px"
	 width="612px" height="792px" viewBox="0 0 612 792" enable-background="new 0 0 612 792" xml:space="preserve">
<g>
	<g>
		<path d="M312.897,106.598c-161.146,0-292.25,131.104-292.25,292.25s131.104,292.25,292.25,292.25s292.25-131.104,292.25-292.25
			S474.043,106.598,312.897,106.598z M312.897,661.873c-145.267,0-263.025-117.758-263.025-263.025s117.758-263.025,263.025-263.025
			S575.922,253.58,575.922,398.848S458.164,661.873,312.897,661.873z"/>
	</g>
</g>
<title>Ресурс 1</title>
<polygon points="491.599,492.898 515.72,461.689 313.478,305.381 313.027,304.797 312.875,304.914 312.766,304.831 312.445,305.246 
	110.073,461.655 134.194,492.865 312.875,354.766 "/>
</svg>
