<?xml version="1.0" encoding="UTF-8" standalone="no"?>
<!DOCTYPE svg PUBLIC "-//W3C//DTD SVG 1.1//EN" "http://www.w3.org/Graphics/SVG/1.1/DTD/svg11.dtd">
<svg version="1.1" xmlns="http://www.w3.org/2000/svg" xmlns:xlink="http://www.w3.org/1999/xlink" preserveAspectRatio="xMidYMid meet" viewBox="4.801939478762919 11.988999873287991 393.3987283693276 377.04400012671204" width="389.4" height="373.04"><defs><path d="M371.46 134.59C364.73 133.61 331.07 128.72 270.5 119.92C243.41 65.03 228.36 34.53 225.35 28.43C220.65 18.91 211.13 12.99 200.5 12.99C189.88 12.99 180.36 18.91 175.66 28.43C172.64 34.53 157.59 65.03 130.5 119.92C69.93 128.72 36.28 133.61 29.55 134.59C19.03 136.12 10.46 143.34 7.18 153.44C3.9 163.55 6.58 174.43 14.19 181.85C19.06 186.6 43.41 210.33 87.24 253.06C76.9 313.39 71.15 346.91 70 353.61C68.2 364.08 72.43 374.47 81.02 380.71C89.62 386.96 100.8 387.76 110.2 382.82C116.22 379.65 146.32 363.83 200.5 335.35C254.68 363.83 284.78 379.66 290.8 382.82C294.89 384.97 299.32 386.03 303.72 386.03C309.44 386.03 315.12 384.24 319.98 380.71C328.58 374.47 332.8 364.08 331 353.61C329.85 346.91 324.11 313.39 313.76 253.06C357.59 210.34 381.94 186.6 386.81 181.85C394.42 174.43 397.11 163.55 393.82 153.45C390.54 143.34 381.97 136.12 371.46 134.59ZM291.62 239.76C288.68 242.63 287.33 246.76 288.03 250.81C289.86 261.51 304.55 347.13 306.38 357.83C306.57 358.94 306.21 359.84 305.3 360.5C304.39 361.16 303.42 361.23 302.42 360.71C292.81 355.66 215.92 315.23 206.31 310.18C204.5 309.22 202.5 308.74 200.5 308.74C198.5 308.74 196.51 309.22 194.69 310.18C185.08 315.23 108.19 355.66 98.58 360.71C97.58 361.23 96.61 361.16 95.7 360.5C94.79 359.84 94.43 358.94 94.62 357.83C96.45 347.13 111.14 261.51 112.97 250.81C113.67 246.76 112.33 242.63 109.38 239.76C101.61 232.18 39.4 171.54 31.63 163.96C30.82 163.18 30.59 162.24 30.93 161.16C31.28 160.09 32.02 159.47 33.14 159.31C43.88 157.74 129.85 145.25 140.59 143.69C144.66 143.1 148.18 140.55 150 136.86C154.8 127.12 193.25 49.22 198.06 39.49C198.55 38.48 199.38 37.97 200.5 37.97C201.63 37.97 202.45 38.48 202.95 39.49C207.75 49.23 246.2 127.12 251 136.86C252.82 140.55 256.34 143.1 260.41 143.69C271.15 145.25 357.12 157.74 367.87 159.31C368.98 159.47 369.72 160.09 370.07 161.16C370.42 162.24 370.18 163.18 369.38 163.96C353.82 179.12 299.4 232.18 291.62 239.76Z" id="b4TPcsyaTH"></path></defs><g><g><use xlink:href="#b4TPcsyaTH" opacity="1" fill="#f3d64b" fill-opacity="1"></use><g><use xlink:href="#b4TPcsyaTH" opacity="1" fill-opacity="0" stroke="#000000" stroke-width="1" stroke-opacity="0"></use></g></g></g></svg>