<?xml version="1.0" encoding="utf-8"?>
<!-- Generator: Adobe Illustrator 17.0.0, SVG Export Plug-In . SVG Version: 6.00 Build 0)  -->
<!DOCTYPE svg PUBLIC "-//W3C//DTD SVG 1.1//EN" "http://www.w3.org/Graphics/SVG/1.1/DTD/svg11.dtd">
<svg version="1.1" id="Capa_1" xmlns="http://www.w3.org/2000/svg" xmlns:xlink="http://www.w3.org/1999/xlink" x="0px" y="0px"
	 width="447px" height="463px" viewBox="83.5 152.5 447 463" enable-background="new 83.5 152.5 447 463" xml:space="preserve">
<path d="M306,344.312c43.929,0,79.598-35.794,79.598-79.598S349.929,184.991,306,184.991s-79.598,35.794-79.598,79.598
	S262.071,344.312,306,344.312z M306,218.783c25.281,0,45.806,20.525,45.806,45.806S331.281,310.395,306,310.395
	s-45.806-20.525-45.806-45.806S280.719,218.783,306,218.783z"/>
<path d="M426.648,441.055c-27.909-41.05-68.459-61.951-120.648-61.951s-92.739,20.775-120.648,61.951
	c-20.775,30.537-34.042,72.214-39.298,123.526c-1.001,9.261,5.757,17.647,15.018,18.523c9.261,1.001,17.647-5.757,18.523-15.018
	c10.638-103.001,53.19-155.19,126.405-155.19s115.767,52.189,126.405,155.19c0.876,8.636,8.26,15.144,16.771,15.144
	c0.626,0,1.126,0,1.752-0.125c9.261-1.001,16.02-9.261,15.018-18.523C460.69,513.144,447.423,471.593,426.648,441.055z"/>
</svg>
