<?xml version="1.0" encoding="UTF-8" standalone="no"?>
<!DOCTYPE svg PUBLIC "-//W3C//DTD SVG 1.1//EN" "http://www.w3.org/Graphics/SVG/1.1/DTD/svg11.dtd">
<svg version="1.1" xmlns="http://www.w3.org/2000/svg" xmlns:xlink="http://www.w3.org/1999/xlink" preserveAspectRatio="xMidYMid meet" viewBox="61.4556855243454 31.491000000000014 324.08880169017266 402.23900000000003" width="320.09" height="398.24"><defs><path d="M302.1 112.21C302.1 68.41 266.43 32.49 222.5 32.49C178.57 32.49 142.9 68.29 142.9 112.09C142.9 155.89 178.57 191.81 222.5 191.81C266.43 191.81 302.1 156.02 302.1 112.21ZM268.31 112.09C268.31 137.37 247.78 157.89 222.5 157.89C197.22 157.89 176.69 137.37 176.69 112.09C176.69 86.81 197.22 66.28 222.5 66.28C247.78 66.28 268.31 86.81 268.31 112.09Z" id="adHnvYC58"></path><path d="M222.5 226.6C170.31 226.6 129.76 247.38 101.85 288.56C81.08 319.09 67.81 360.77 62.55 412.08C61.55 421.34 68.31 429.73 77.57 430.6C86.83 431.61 95.22 424.85 96.1 415.59C106.73 312.59 149.29 260.4 222.5 260.4C295.72 260.4 338.27 312.59 348.91 415.59C349.78 424.22 357.17 430.73 365.68 430.73C366.3 430.73 366.8 430.73 367.43 430.61C376.69 429.6 383.45 421.34 382.45 412.08C377.19 360.64 363.92 319.09 343.15 288.56C315.24 247.51 274.69 226.6 222.5 226.6Z" id="aiTdEtYHq"></path></defs><g><g><use xlink:href="#adHnvYC58" opacity="1" fill="#ffffff" fill-opacity="1"></use><g><use xlink:href="#adHnvYC58" opacity="1" fill-opacity="0" stroke="#000000" stroke-width="1" stroke-opacity="0"></use></g></g><g><use xlink:href="#aiTdEtYHq" opacity="1" fill="#ffffff" fill-opacity="1"></use><g><use xlink:href="#aiTdEtYHq" opacity="1" fill-opacity="0" stroke="#000000" stroke-width="1" stroke-opacity="0"></use></g></g></g></svg>