<svg xmlns="http://www.w3.org/2000/svg" viewBox="0 0 455.73 455.73"><defs><style>.cls-1{fill:#3a559f;}.cls-2{fill:#fff;}</style></defs><title>fsbkРесурс 1</title><g id="Слой_2" data-name="Слой 2"><g id="Capa_1" data-name="Capa 1"><rect class="cls-1" width="455.73" height="455.73"/><path class="cls-2" d="M118.06,138.69c10.92,27,24.76,52.4,43,75.23a40.22,40.22,0,0,0,8.68,7.94c4.69,3.22,9.12,2.09,11-3.28,2-5.63,3.87-17,4-23,.3-15.45,0-25.57-.87-41-.54-9.88-4.05-18.56-18.59-21.18-4.49-.81-4.91-4.5-2-8.19,6-7.67,14.37-8.9,23.44-9.38,14.7-.8,29.45-.15,44.17,0a88.12,88.12,0,0,1,17.93,1.82c7.7,1.68,11.82,7.08,13.09,14.6a62.22,62.22,0,0,1,.91,11.79c-.39,16.86-1.2,33.72-1.39,50.57a88.58,88.58,0,0,0,1.81,19.84c2,9,8.1,11.23,14.35,4.74a219.11,219.11,0,0,0,21.5-26.92C311,175.19,319.91,156.39,327.59,137c4-10,7-12.17,17.76-12.2q30.33-.06,60.66,0a36.36,36.36,0,0,1,10.72,1.44c5.5,1.75,7.68,6.23,6.39,11.91-3,13.33-10.2,24.65-17.91,35.53-12.37,17.47-25.34,34.51-38,51.78a65.48,65.48,0,0,0-4.37,6.92c-4.73,8.56-4.4,13.36,2.5,20.49,11,11.34,22.77,21.95,33.42,33.6a197.48,197.48,0,0,1,21,27.36c7.76,12.24,3,23.77-11.52,25.83-9.12,1.28-53.64,0-55.95,0a43.61,43.61,0,0,1-30.91-12.34c-9.4-9.05-17.94-19-27-28.42a74.91,74.91,0,0,0-8.75-8c-7.38-5.63-14.63-4.38-18.08,4.29-2.95,7.45-5.49,27-5.61,28.67-.62,8.73-6.18,14.3-16,14.83-28.24,1.54-55.6-1.61-81.1-15.27-21.6-11.57-38.86-27.93-53.8-47-23.75-30.3-42.5-63.61-59.62-97.9-.88-1.76-18.22-38.66-18.68-40.4-1.55-5.83-.11-11.41,4.82-13.33,3.08-1.19,60.25,0,61.2,0C108,125.37,114.22,129.22,118.06,138.69Z"/></g></g></svg>