<svg id="Слой_1" data-name="Слой 1" xmlns="http://www.w3.org/2000/svg" xmlns:xlink="http://www.w3.org/1999/xlink" viewBox="0 0 512 512"><defs><style>.cls-1{fill:none;}.cls-2{clip-path:url(#clip-path);}.cls-3{fill:url(#Безымянный_градиент);}.cls-4{fill:url(#Безымянный_градиент_2);}.cls-5{fill:url(#Безымянный_градиент_3);}.cls-6{fill:url(#Безымянный_градиент_7);}.cls-7{fill:url(#Безымянный_градиент_7-2);}.cls-8{fill:url(#Безымянный_градиент_7-3);}.cls-9{fill:url(#Безымянный_градиент_7-4);}.cls-10{fill:url(#Безымянный_градиент_8);}.cls-11{fill:#fff;}</style><clipPath id="clip-path" transform="translate(34.32 34.36)"><rect id="_Фрагмент_" data-name="&lt;Фрагмент&gt;" class="cls-1" x="0.37" y="0.64" width="442" height="442"/></clipPath><radialGradient id="Безымянный_градиент" cx="70.63" cy="32.19" r="564.65" gradientTransform="matrix(1, 0, 0, -1, 0, 445.27)" gradientUnits="userSpaceOnUse"><stop offset="0" stop-color="#fae100"/><stop offset="0.05" stop-color="#fadc04"/><stop offset="0.12" stop-color="#fbce0e"/><stop offset="0.18" stop-color="#fcb720"/><stop offset="0.25" stop-color="#fe9838"/><stop offset="0.31" stop-color="#ff7950"/><stop offset="0.49" stop-color="#ff1c74"/><stop offset="1" stop-color="#6c1cd1"/></radialGradient><linearGradient id="Безымянный_градиент_2" x1="162.05" y1="257.18" x2="-705.34" y2="745.08" gradientTransform="matrix(1, 0, 0, -1, 0, 445.27)" gradientUnits="userSpaceOnUse"><stop offset="0" stop-color="#a1b5d8" stop-opacity="0"/><stop offset="0.31" stop-color="#90a2bd" stop-opacity="0.31"/><stop offset="0.76" stop-color="#7c8b9c" stop-opacity="0.76"/><stop offset="1" stop-color="#748290"/></linearGradient><linearGradient id="Безымянный_градиент_3" x1="221.68" y1="27.67" x2="221.68" y2="-52.14" gradientTransform="matrix(1, 0, 0, -1, 0, 445.27)" gradientUnits="userSpaceOnUse"><stop offset="0" stop-color="#fae100" stop-opacity="0"/><stop offset="0.31" stop-color="#fca800" stop-opacity="0.31"/><stop offset="0.63" stop-color="#fe7300" stop-opacity="0.63"/><stop offset="0.87" stop-color="#ff5200" stop-opacity="0.87"/><stop offset="1" stop-color="#ff4500"/></linearGradient><linearGradient id="Безымянный_градиент_7" x1="192.55" y1="253.49" x2="65.83" y2="380.2" gradientTransform="matrix(1, 0, 0, -1, 0, 445.27)" gradientUnits="userSpaceOnUse"><stop offset="0" stop-color="#833ab4" stop-opacity="0"/><stop offset="1" stop-color="#833ab4"/></linearGradient><linearGradient id="Безымянный_градиент_7-2" x1="316.57" y1="11.35" x2="253.33" y2="309.5" xlink:href="#Безымянный_градиент_7"/><linearGradient id="Безымянный_градиент_7-3" x1="340.64" y1="104.67" x2="86.62" y2="358.7" xlink:href="#Безымянный_градиент_7"/><linearGradient id="Безымянный_градиент_7-4" x1="359.48" y1="258.37" x2="275.48" y2="342.37" xlink:href="#Безымянный_градиент_7"/><linearGradient id="Безымянный_градиент_8" x1="323.33" y1="324.59" x2="116.22" y2="117.47" gradientTransform="matrix(1, 0, 0, -1, 0, 445.27)" gradientUnits="userSpaceOnUse"><stop offset="0" stop-color="#833ab4"/><stop offset="0.09" stop-color="#9c3495"/><stop offset="0.29" stop-color="#dc2546"/><stop offset="0.39" stop-color="#fd1d1d"/><stop offset="0.56" stop-color="#fc6831"/><stop offset="0.69" stop-color="#fc9b40"/><stop offset="0.75" stop-color="#fcaf45"/><stop offset="0.78" stop-color="#fdb750"/><stop offset="0.87" stop-color="#fecb6a"/><stop offset="0.94" stop-color="#ffd87a"/><stop offset="1" stop-color="#ffdc80"/></linearGradient></defs><title>instagram_square</title><g class="cls-2"><path class="cls-3" d="M468.91,57.21A93.23,93.23,0,0,0,386.1-25.6a1546.1,1546.1,0,0,0-328.84,0A93.23,93.23,0,0,0-25.56,57.21a1546.1,1546.1,0,0,0,0,328.84,93.23,93.23,0,0,0,82.81,82.82,1546.19,1546.19,0,0,0,328.85,0,93.23,93.23,0,0,0,82.81-82.82A1546.1,1546.1,0,0,0,468.91,57.21Z" transform="translate(34.32 34.36)"/><path class="cls-4" d="M441.06,75.73A82.73,82.73,0,0,0,367.58,2.24a1373.79,1373.79,0,0,0-291.81,0A82.76,82.76,0,0,0,2.28,75.73a1373.69,1373.69,0,0,0,0,291.8A82.74,82.74,0,0,0,75.77,441a1372.38,1372.38,0,0,0,291.8,0,82.72,82.72,0,0,0,73.49-73.49A1372.38,1372.38,0,0,0,441.06,75.73Z" transform="translate(34.32 34.36)"/><path class="cls-5" d="M-26.65,375.44q.52,5.31,1.09,10.62a93.23,93.23,0,0,0,82.82,82.81,1546.1,1546.1,0,0,0,328.84,0,93.23,93.23,0,0,0,82.81-82.81c.38-3.54.74-7.08,1.1-10.62Z" transform="translate(34.32 34.36)"/><path class="cls-6" d="M468.91,386.05a1547.74,1547.74,0,0,0,8.71-176.7l-117-117c-14.62-16.69-36-27.11-61.07-28-51.61-1.86-103.38-1.76-155,0C101.66,65.8,71.69,94.61,64,137c-1.36,7.47-2.17,15-3.24,22.58V283.69c.59,4,1.46,8,1.73,12.07,1.72,25.76,12.31,47.82,29.26,62.75L210.84,477.6a1548.14,1548.14,0,0,0,175.26-8.73A93.23,93.23,0,0,0,468.91,386.05Z" transform="translate(34.32 34.36)"/><path class="cls-7" d="M468.91,386.06a93.23,93.23,0,0,1-82.81,82.81,1548,1548,0,0,1-175.26,8.73L91.93,358.68c13.78,12.07,31.75,19.42,52.6,20.2,51.61,1.94,103.39,1.89,155,0,46.67-1.69,80.44-36.23,81.9-82.9q2.34-74.34,0-148.8c-.66-21.53-8.22-40.47-20.75-54.81l117,117A1547.85,1547.85,0,0,1,468.91,386.06Z" transform="translate(34.32 34.36)"/><path class="cls-8" d="M282.09,166.19A82,82,0,1,0,166.23,282.05L356,471.79q15.06-1.32,30.12-2.92a93.23,93.23,0,0,0,82.82-82.82q1.6-15,2.92-30.12Z" transform="translate(34.32 34.36)"/><path class="cls-9" d="M476.68,276.79,324,124.09a19.49,19.49,0,1,0-27.31,27.31L474,328.68Q475.77,302.75,476.68,276.79Z" transform="translate(34.32 34.36)"/><path class="cls-10" d="M60.76,159.54C61.83,152,62.64,144.43,64,137c7.68-42.35,37.66-71.16,80.53-72.64,51.61-1.77,103.38-1.87,155,0,46.66,1.68,80.44,36.23,81.9,82.9q2.32,74.34,0,148.8c-1.46,46.67-35.23,81.21-81.9,82.89-51.6,1.87-103.38,1.92-155,0-46.66-1.76-78.92-36.38-82-83.12-.27-4.05-1.14-8.05-1.73-12.08Zm161,191.7c23.62,0,47.26.71,70.84-.16,37-1.37,59.73-23.44,60.59-60.39q1.61-69,0-138.17c-.86-36.94-23.62-59.52-60.59-60.31q-70.38-1.48-140.8,0c-36.69.77-59.5,22.9-60.5,59.43q-1.89,69.93,0,139.94c1,36.52,23.81,58.14,60.5,59.5C175.05,352,198.4,351.24,221.72,351.24Z" transform="translate(34.32 34.36)"/><path class="cls-11" d="M60.76,159.54C61.83,152,62.64,144.43,64,137c7.68-42.35,37.66-71.16,80.53-72.64,51.61-1.77,103.38-1.87,155,0,46.66,1.68,80.44,36.23,81.9,82.9q2.32,74.34,0,148.8c-1.46,46.67-35.23,81.21-81.9,82.89-51.6,1.87-103.38,1.92-155,0-46.66-1.76-78.92-36.38-82-83.12-.27-4.05-1.14-8.05-1.73-12.08Zm161,191.7c23.62,0,47.26.71,70.84-.16,37-1.37,59.73-23.44,60.59-60.39q1.61-69,0-138.17c-.86-36.94-23.62-59.52-60.59-60.31q-70.38-1.48-140.8,0c-36.69.77-59.5,22.9-60.5,59.43q-1.89,69.93,0,139.94c1,36.52,23.81,58.14,60.5,59.5C175.05,352,198.4,351.24,221.72,351.24Z" transform="translate(34.32 34.36)"/><path class="cls-11" d="M221.68,139.63a82,82,0,1,0,82,82A82,82,0,0,0,221.68,139.63Zm0,135.78a53.78,53.78,0,1,1,53.77-53.77A53.78,53.78,0,0,1,221.68,275.41Z" transform="translate(34.32 34.36)"/><path class="cls-11" d="M328,135.89a19.51,19.51,0,1,1-19.51-19.51A19.51,19.51,0,0,1,328,135.89Z" transform="translate(34.32 34.36)"/></g></svg>