<?xml version="1.0" encoding="utf-8"?>
<!-- Generator: Adobe Illustrator 22.0.0, SVG Export Plug-In . SVG Version: 6.00 Build 0)  -->
<svg version="1.1" id="Слой_1" xmlns="http://www.w3.org/2000/svg" xmlns:xlink="http://www.w3.org/1999/xlink" x="0px" y="0px"
	 viewBox="0 0 71.4 48.3" style="enable-background:new 0 0 71.4 48.3;" xml:space="preserve">
<style type="text/css">
	.st0{fill:#C45448;}
	.st1{fill:#8A2E00;}
	.st2{fill:#DB6563;}
	.st3{fill:#A53732;}
	.st4{fill:#C95D5D;}
	.st5{fill:#A3423B;}
	.st6{fill:#BA3D3A;}
	.st7{fill:#AF3C3C;}
	.st8{fill:#8E3932;}
	.st9{fill:#AF4E4B;}
</style>
<path class="st2" d="M0,13L11.7,0v13H0z M11.7,13V0l11.7,13H11.7z"/>
<path class="st3" d="M23.3,0v13L11.7,0H23.3z M23.3,0v13L35,0H23.3z"/>
<polyline class="st4" points="35,48 23.3,13 0,13 "/>
<path class="st5" d="M58.3,13V0L70,13H58.3z M58.3,13V0L46.6,13H58.3z"/>
<path class="st6" d="M35.1,13v35.3L23.2,13H35.1z M35.1,13v35.3L46.7,13H35.1z"/>
<path class="st7" d="M58.3,0L46.6,13V0H58.3z M35,0l11.7,13V0H35z"/>
<polyline class="st8" points="35,48 46.6,13 70,13 "/>
<path class="st9" d="M23.3,13L35,0v13H23.3z M46.6,13L35,0v13H46.6z"/>
</svg>
